<?xml version="1.0" encoding="utf-8"?>
<!-- Generator: Adobe Illustrator 26.5.0, SVG Export Plug-In . SVG Version: 6.00 Build 0)  -->
<svg version="1.1" id="bold" xmlns="http://www.w3.org/2000/svg" xmlns:xlink="http://www.w3.org/1999/xlink" x="0px" y="0px"
	 viewBox="0 0 512 512" style="enable-background:new 0 0 512 512;" xml:space="preserve">
<style type="text/css">
	.st0{fill:#008470;}
</style>
<path class="st0" d="M410.7,320c-8.8,0-16,7.2-16,16v21.3H384v-64c0-32.4-26.3-58.7-58.7-58.7h-96v-45.8
	c15.6-6.3,26.7-21.6,26.7-39.5c0-23.5-19.1-42.7-42.7-42.7s-42.7,19.1-42.7,42.7c0,17.9,11.1,33.2,26.7,39.5v45.8h-96
	c-32.4,0-58.7,26.3-58.7,58.7v64H32V336c0-8.8-7.2-16-16-16s-16,7.2-16,16v74.7c0,8.8,7.2,16,16,16s16-7.2,16-16v-21.3h10.7v64
	c0,32.4,26.3,58.7,58.7,58.7h224c32.4,0,58.7-26.3,58.7-58.7v-64h10.7v21.3c0,8.8,7.2,16,16,16c8.8,0,16-7.2,16-16V336
	C426.7,327.2,419.5,320,410.7,320z M106.7,341.3c0-23.5,19.1-42.7,42.7-42.7s42.7,19.1,42.7,42.7S172.9,384,149.3,384
	S106.7,364.9,106.7,341.3z M261.3,448h-96c-8.8,0-16-7.2-16-16c0-8.8,7.2-16,16-16h96c8.8,0,16,7.2,16,16
	C277.3,440.8,270.2,448,261.3,448z M277.3,384c-23.5,0-42.7-19.1-42.7-42.7s19.1-42.7,42.7-42.7s42.7,19.1,42.7,42.7
	S300.9,384,277.3,384z"/>
<circle class="st0" cx="416" cy="149.3" r="21.3"/>
<path class="st0" d="M360.9,87.7c-6.1,6.4-5.9,16.5,0.4,22.6c6.4,6.2,16.5,5.9,22.6-0.4c17.3-17.9,46.9-17.9,64.2,0
	c6.1,6.3,16.3,6.5,22.6,0.4c6.4-6.1,6.5-16.3,0.4-22.6C441.7,57.1,390.3,57.1,360.9,87.7L360.9,87.7z"/>
<path class="st0" d="M416,0c-34.6,0-67.1,13.9-91.5,39.3c-6.1,6.4-5.9,16.5,0.4,22.6c6.4,6.1,16.5,5.9,22.6-0.4
	C365.8,42.5,390.1,32,416,32c25.9,0,50.2,10.5,68.5,29.5c6.1,6.3,16.3,6.5,22.6,0.4s6.5-16.3,0.4-22.6C483.1,13.9,450.6,0,416,0z"/>
</svg>
