<?xml version="1.0" encoding="utf-8"?>
<!-- Generator: Adobe Illustrator 25.4.1, SVG Export Plug-In . SVG Version: 6.00 Build 0)  -->
<svg version="1.1" id="Capa_1" xmlns="http://www.w3.org/2000/svg" xmlns:xlink="http://www.w3.org/1999/xlink" x="0px" y="0px"
	 viewBox="0 0 512 512" style="enable-background:new 0 0 512 512;" xml:space="preserve">
<style type="text/css">
	.st0{fill:#FFFFFF;}
</style>
<g>
	<path class="st0" d="M451,236.6h61v30h-61V236.6z"/>
	<path class="st0" d="M505.3,174.1l-16.6-25l-46,30l16.6,25L505.3,174.1z"/>
	<path class="st0" d="M442.7,324.1l46,30l16.6-25l-46-30L442.7,324.1z"/>
	<path class="st0" d="M75,176.6c-41.4,0-75,33.6-75,75s33.6,75,75,75h112.7c7.3,0,14.8,0.6,22.3,1.7V174.9c-7.5,1.1-15,1.7-22.3,1.7
		L75,176.6z"/>
	<path class="st0" d="M240,167.6v167.9c47.1,15.2,99.1,50.3,155.4,106.6l25.6,25.6V35.4L395.4,61C339.1,117.3,287.1,152.4,240,167.6
		L240,167.6z"/>
	<path class="st0" d="M180,356.6H83.7l24,120H180v-60h30v-30h-30V356.6z"/>
</g>
</svg>
