<?xml version="1.0" encoding="utf-8"?>
<!-- Generator: Adobe Illustrator 25.4.1, SVG Export Plug-In . SVG Version: 6.00 Build 0)  -->
<svg version="1.1" id="圖層_1" xmlns="http://www.w3.org/2000/svg" xmlns:xlink="http://www.w3.org/1999/xlink" x="0px" y="0px"
	 viewBox="0 0 512 512" style="enable-background:new 0 0 512 512;" xml:space="preserve">
<style type="text/css">
	.st0{fill:#FFFFFF;}
</style>
<path class="st0" d="M76,512c41.4,0,75-34.6,75-76s-33.6-76-75-76S0,394.6,0,436S34.6,512,76,512z"/>
<path class="st0" d="M242,497c0,5.1-0.4,10-0.8,15h90c0.2-5,0.8-9.9,0.8-15c0-173.7-143.3-317-317-317c-5.1,0-10,0.5-15,0.8v90
	c5-0.3,9.9-0.8,15-0.8C139.1,270,242,372.9,242,497z"/>
<path class="st0" d="M15,0C9.9,0,5,0.6,0,0.8v90C5,90.6,9.9,90,15,90c223.3,0,407,183.7,407,407c0,5.1-0.6,10-0.8,15h90
	c0.1-5,0.8-9.9,0.8-15C512,223.6,288.4,0,15,0z"/>
</svg>
