<?xml version="1.0" encoding="utf-8"?>
<!-- Generator: Adobe Illustrator 25.4.1, SVG Export Plug-In . SVG Version: 6.00 Build 0)  -->
<svg version="1.1" id="圖層_1" xmlns="http://www.w3.org/2000/svg" xmlns:xlink="http://www.w3.org/1999/xlink" x="0px" y="0px"
	 viewBox="0 0 64 64" style="enable-background:new 0 0 64 64;" xml:space="preserve">
<style type="text/css">
	.st0{fill:#FFFFFF;}
</style>
<g id="surface1">
	<path class="st0" d="M9.6,45.2H14c0.5,0,0.9-0.4,0.9-0.9c0-0.5-0.4-0.9-0.9-0.9H9.6c-0.5,0-0.9,0.4-0.9,0.9
		C8.7,44.8,9.1,45.2,9.6,45.2z"/>
	<path class="st0" d="M9.6,49.4h9.9c0.5,0,0.9-0.4,0.9-0.9c0-0.5-0.4-0.9-0.9-0.9H9.6c-0.5,0-0.9,0.4-0.9,0.9
		C8.7,49,9.1,49.4,9.6,49.4z"/>
	<path class="st0" d="M59.9,13.5c-0.3-0.4-0.9-0.4-1.3-0.1c-0.4,0.3-0.4,0.9-0.1,1.3c2,2.3,3.3,5.2,3.6,8.2h-0.8
		c-0.5,0-0.9,0.4-0.9,0.9c0,0.5,0.4,0.9,0.9,0.9h0.9v14.8c0,8.2-6.7,14.9-14.9,14.9H16.7c-8.2,0-14.9-6.7-14.9-14.9v-15
		c0-8.2,6.7-14.9,14.9-14.9h30.6c2.9,0,5.7,0.8,8.1,2.4c0.4,0.3,1,0.2,1.3-0.3c0.3-0.4,0.2-1-0.3-1.3c-2.7-1.8-5.9-2.7-9.2-2.7H16.7
		C7.5,7.8,0,15.3,0,24.5v15c0,9.2,7.5,16.7,16.7,16.7h30.6c9.2,0,16.7-7.5,16.7-16.7v-15C64,20.4,62.5,16.5,59.9,13.5z"/>
	<path class="st0" d="M13.8,27.7c-0.9,0-1.6,0.7-1.6,1.6V36c0,0.9,0.7,1.6,1.6,1.6h8c0.9,0,1.6-0.7,1.6-1.6v-6.7
		c0-0.9-0.7-1.6-1.6-1.6H13.8z M16.9,35.8H14v-2.9h2.9V35.8z M16.9,31H14v-1.4h2.9V31z M21.6,35.8h-2.9v-6.2h2.9V35.8z"/>
	<path class="st0" d="M40.4,51.8c0.5,0.2,1-0.1,1.2-0.5l0.4-1h2.7l0.4,1c0.1,0.4,0.5,0.6,0.9,0.6c0.1,0,0.2,0,0.3-0.1
		c0.5-0.2,0.7-0.7,0.5-1.2l-2.4-6.5c0,0,0,0,0,0c-0.2-0.4-0.6-0.7-1-0.7c0,0,0,0,0,0c-0.4,0-0.8,0.3-1,0.7c0,0,0,0,0,0l-2.5,6.5
		C39.7,51.1,39.9,51.7,40.4,51.8z M43.3,46.7l0.6,1.7h-1.3L43.3,46.7z"/>
	<path class="st0" d="M47.9,51.6c0.2,0.1,0.3,0.2,0.5,0.2c0.3,0,0.6-0.1,0.8-0.4l1.7-2.5l1.7,2.4c0.2,0.3,0.5,0.4,0.8,0.4
		c0.2,0,0.4-0.1,0.5-0.2c0.4-0.3,0.5-0.9,0.2-1.3l-2.1-3l1.8-2.5c0.3-0.4,0.2-1-0.2-1.3c-0.4-0.3-1-0.2-1.3,0.2l-1.4,2l-1.4-2
		c-0.3-0.4-0.9-0.5-1.3-0.2c-0.4,0.3-0.5,0.9-0.2,1.3l1.8,2.5l-2.1,3C47.4,50.8,47.5,51.3,47.9,51.6z"/>
	<path class="st0" d="M37.3,51.8c0.5,0,0.9-0.4,0.9-0.9v-5.7h0.9c0.5,0,0.9-0.4,0.9-0.9s-0.4-0.9-0.9-0.9h-3.6
		c-0.5,0-0.9,0.4-0.9,0.9s0.4,0.9,0.9,0.9h0.9v5.7C36.3,51.4,36.7,51.8,37.3,51.8z"/>
	<path class="st0" d="M52.4,14.6c-0.3-0.3-0.6-0.4-1-0.4H22.9v-2.3c0-0.8-0.6-1.4-1.4-1.4h-2.9c-0.8,0-1.4,0.6-1.4,1.4v2.3h-4.8
		c-0.4,0-0.8,0.2-1,0.4l-5.8,5.8c-0.3,0.3-0.4,0.8-0.2,1.2s0.6,0.7,1,0.7h2.4V40c0,0.8,0.7,1.5,1.5,1.5h43.6c0.9,0,1.5-0.7,1.5-1.5
		V24.8c0.5,0,1.1-0.1,1.6-0.1c0.5,0,0.9-0.4,0.9-0.9c0-0.5-0.4-0.9-0.9-0.9c0,0,0,0,0,0c-0.9,0-1.9,0.1-2.8,0.2
		c-0.5,0.1-0.9,0.5-0.8,1c0,0.2,0.1,0.3,0.2,0.5v15.1H34.4c0.3-0.6,0.6-1.3,0.9-1.9c0.2-0.4,0.1-1-0.4-1.2s-1-0.1-1.2,0.4
		c-0.4,0.8-0.8,1.7-1.2,2.5c0,0.1-0.1,0.1-0.1,0.2h-5.2v-3.9h2.2c0.5,0,0.9-0.4,0.9-0.9c0-0.5-0.4-0.9-0.9-0.9h-2.2v-4.8h6.2v0.4
		c0,0.5,0.4,0.9,0.9,0.9c0.5,0,0.9-0.4,0.9-0.9v-0.8c0-0.8-0.7-1.5-1.5-1.5H27c-0.8,0-1.5,0.7-1.5,1.5v10.8H10.6V22.3h46.9
		c0.5,0,0.9-0.3,1-0.7s0.1-0.9-0.2-1.2L52.4,14.6z M19.1,12.3h2v1.9h-2V12.3z M8.1,20.5l4.5-4.5h38.6l4.5,4.5H8.1z"/>
	<path class="st0" d="M40.8,36c0,0.9,0.7,1.6,1.6,1.6h8c0.9,0,1.6-0.7,1.6-1.6v-6.7c0-0.9-0.7-1.6-1.6-1.6h-5.6
		c0.1-0.2,0-0.5-0.1-0.7c-0.3-0.4-0.8-0.6-1.3-0.3c-0.8,0.5-1.6,1-2.3,1.6c-0.3,0.2-0.4,0.7-0.3,1v0V36z M47.4,29.6h2.9v6.2h-2.9
		V29.6z M42.7,29.6h2.9V31h-2.9V29.6z M42.7,32.9h2.9v2.9h-2.9V32.9z"/>
	<path class="st0" d="M37.9,31.2c-0.6,0.7-1.3,1.4-1.8,2.1c-0.3,0.4-0.2,1,0.2,1.3c0.2,0.1,0.4,0.2,0.6,0.2c0.3,0,0.6-0.1,0.7-0.4
		c0.5-0.7,1.1-1.4,1.7-2c0.4-0.4,0.3-1,0-1.3C38.8,30.8,38.2,30.8,37.9,31.2z"/>
	<path class="st0" d="M33,44c0.1-0.5-0.2-1-0.7-1.1c-0.5-0.1-1,0.2-1.1,0.7c-0.2,0.9-0.4,1.8-0.5,2.8c-0.1,0.5,0.3,1,0.8,1
		c0,0,0.1,0,0.1,0c0.5,0,0.9-0.3,0.9-0.8C32.7,45.7,32.9,44.9,33,44z"/>
	<path class="st0" d="M31.5,49.7c-0.5,0-0.9,0.4-0.9,0.9v2.7c0,0.5,0.4,0.9,0.9,0.9c0.5,0,0.9-0.4,0.9-0.9v-2.7
		C32.4,50.2,32,49.7,31.5,49.7z"/>
	<path class="st0" d="M47.7,26.6c0.1,0,0.2,0,0.3-0.1c0.8-0.3,1.6-0.6,2.5-0.8c0.5-0.1,0.8-0.6,0.6-1.1C51,24,50.5,23.7,50,23.9
		c-0.9,0.2-1.8,0.6-2.7,0.9c-0.5,0.2-0.7,0.7-0.5,1.2C47,26.3,47.3,26.6,47.7,26.6z"/>
	<path class="st0" d="M39.5,16.6h-1.4c-0.5,0-0.9,0.4-0.9,0.9c0,0.5,0.4,0.9,0.9,0.9h1.4c0.5,0,0.9-0.4,0.9-0.9
		C40.4,17,40,16.6,39.5,16.6z"/>
	<path class="st0" d="M45.5,16.6h-1.4c-0.5,0-0.9,0.4-0.9,0.9c0,0.5,0.4,0.9,0.9,0.9h1.4c0.5,0,0.9-0.4,0.9-0.9
		C46.4,17,46,16.6,45.5,16.6z"/>
	<path class="st0" d="M35.4,18.1H34c-0.5,0-0.9,0.4-0.9,0.9s0.4,0.9,0.9,0.9h1.4c0.5,0,0.9-0.4,0.9-0.9S35.9,18.1,35.4,18.1z"/>
	<path class="st0" d="M15.3,17.9h-1.4c-0.5,0-0.9,0.4-0.9,0.9c0,0.5,0.4,0.9,0.9,0.9h1.4c0.5,0,0.9-0.4,0.9-0.9
		C16.2,18.3,15.8,17.9,15.3,17.9z"/>
	<path class="st0" d="M28.5,16.6h-1.4c-0.5,0-0.9,0.4-0.9,0.9c0,0.5,0.4,0.9,0.9,0.9h1.4c0.5,0,0.9-0.4,0.9-0.9
		C29.4,17,29,16.6,28.5,16.6z"/>
</g>
</svg>
