<?xml version="1.0" encoding="utf-8"?>
<!-- Generator: Adobe Illustrator 25.4.1, SVG Export Plug-In . SVG Version: 6.00 Build 0)  -->
<svg version="1.1" id="圖層_1" xmlns="http://www.w3.org/2000/svg" xmlns:xlink="http://www.w3.org/1999/xlink" x="0px" y="0px"
	 viewBox="0 0 64 64" style="enable-background:new 0 0 64 64;" xml:space="preserve">
<style type="text/css">
	.st0{fill:#FFFFFF;}
</style>
<g id="surface1">
	<path class="st0" d="M62.2,17.5l0.6-0.6c1.7-1.7,1.7-4.4,0-6.1l-5.5-5.5c-0.8-0.8-1.9-1.3-3-1.3s-2.2,0.4-3,1.3l-0.6,0.6l-0.7-0.7
		c-0.6-0.6-1.6-0.6-2.2,0l-1.5,1.5c-0.6,0.6-0.6,1.6,0,2.2l5.8,5.8l-1.3,1.3C46.3,11.2,40,8,33,7.8v-3h1.7c0.5,0,0.9-0.4,0.9-0.9
		s-0.4-0.9-0.9-0.9h-5.3c-0.5,0-0.9,0.4-0.9,0.9s0.4,0.9,0.9,0.9h1.7v3c-7,0.3-13.2,3.4-17.6,8.3l-1.4-1.4l5.8-5.8
		c0.6-0.6,0.6-1.6,0-2.2l-1.5-1.5c-0.6-0.6-1.6-0.6-2.2,0l-0.7,0.7l-0.6-0.6C12,4.5,10.9,4,9.8,4c-1.1,0-2.2,0.4-3,1.3L4.2,7.8
		c-0.4,0.4-0.4,0.9,0,1.3c0.4,0.4,0.9,0.4,1.3,0l2.5-2.5c0.5-0.5,1.1-0.7,1.7-0.7s1.3,0.3,1.7,0.7l0.6,0.6c0.7,0.7,1.8,0.7,2.5,0
		l0.6-0.6l1.1,1.1L3.8,20.4l-1.1-1.1l0.6-0.6c0.3-0.3,0.5-0.8,0.5-1.3c0-0.5-0.2-0.9-0.5-1.3l-0.6-0.6c-1-1-1-2.5,0-3.5
		c0.4-0.4,0.4-0.9,0-1.3c-0.4-0.4-0.9-0.4-1.3,0c-1.7,1.7-1.7,4.4,0,6.1l0.6,0.6l-0.7,0.7c-0.3,0.3-0.5,0.7-0.5,1.1
		c0,0.4,0.2,0.8,0.5,1.1l1.5,1.5c0.3,0.3,0.7,0.5,1.1,0.5c0.4,0,0.8-0.2,1.1-0.5l5.9-5.9l1.6,1.6c-3.2,4.2-5.1,9.4-5.1,15
		c0,4.2,1.1,8.4,3.1,12c0.2,0.4,0.8,0.6,1.3,0.4c0.4-0.2,0.6-0.8,0.4-1.3c-1.9-3.4-2.9-7.2-2.9-11.1c0-12.6,10.3-22.9,22.9-22.9
		C44.7,9.6,55,19.9,55,32.5c0,12.6-10.3,22.9-22.9,22.9c-6.9,0-13.4-3.1-17.8-8.5c-0.3-0.4-0.9-0.5-1.3-0.1
		c-0.4,0.3-0.5,0.9-0.1,1.3c1.7,2.1,3.7,3.9,5.9,5.3l-2,5.8c-0.1,0.4-0.1,0.9,0.2,1.3c0.3,0.4,0.7,0.6,1.2,0.6h4
		c0.7,0,1.3-0.5,1.6-1.1l1.3-3.7c2.3,0.7,4.7,1.1,7.1,1.1c2.5,0,4.9-0.4,7.1-1.1l1.3,3.7c0.2,0.7,0.9,1.1,1.6,1.1h4
		c0.5,0,0.9-0.2,1.2-0.6c0.3-0.4,0.3-0.9,0.2-1.3l-2-5.8c6.9-4.4,11.4-12.1,11.4-20.9c0-5.6-1.9-10.8-5.1-15l1.5-1.5l5.8,5.8
		c0.3,0.3,0.7,0.5,1.1,0.5s0.8-0.2,1.1-0.5l1.5-1.5c0.3-0.3,0.5-0.7,0.5-1.1c0-0.4-0.2-0.8-0.5-1.1L62.2,17.5z M22,59.2h-3.2
		l1.7-4.9c0.9,0.5,1.8,0.9,2.8,1.3L22,59.2z M45.5,59.2h-3.2L41,55.7c1-0.4,1.9-0.8,2.8-1.3L45.5,59.2z M61.4,15.6l-0.6,0.6
		c-0.3,0.3-0.5,0.8-0.5,1.3c0,0.5,0.2,0.9,0.5,1.3l0.6,0.6l-1.1,1.1L47.6,7.8l1.1-1.1l0.6,0.6c0.7,0.7,1.8,0.7,2.5,0l0.6-0.6
		c0.5-0.5,1.1-0.7,1.7-0.7s1.3,0.3,1.7,0.7l5.5,5.5C62.4,13.1,62.4,14.6,61.4,15.6z"/>
	<path class="st0" d="M36,14.4c0.1-0.5-0.3-1-0.8-1.1c-1-0.2-2.1-0.2-3.1-0.2c-10.7,0-19.5,8.7-19.5,19.5c0,10.7,8.7,19.5,19.5,19.5
		c10.7,0,19.5-8.7,19.5-19.5c0-7.9-4.7-14.9-12-18c-0.5-0.2-1,0-1.2,0.5c-0.2,0.5,0,1,0.5,1.2c6.6,2.8,10.9,9.1,10.9,16.3
		c0,9.7-7.9,17.6-17.6,17.6c-9.7,0-17.6-7.9-17.6-17.6c0-9.7,7.9-17.6,17.6-17.6c0.9,0,1.9,0.1,2.8,0.2C35.4,15.2,35.9,14.9,36,14.4
		z"/>
	<path class="st0" d="M33.3,18.2c0,0.7-0.5,1.2-1.2,1.2c-0.7,0-1.2-0.5-1.2-1.2c0-0.7,0.5-1.2,1.2-1.2C32.8,17,33.3,17.5,33.3,18.2z
		"/>
	<path class="st0" d="M18.9,32.5c0,0.7-0.5,1.2-1.2,1.2c-0.7,0-1.2-0.5-1.2-1.2c0-0.7,0.5-1.2,1.2-1.2
		C18.4,31.4,18.9,31.9,18.9,32.5z"/>
	<path class="st0" d="M20.4,24.7c-0.5-0.5-1.2-0.5-1.7,0c-0.5,0.5-0.5,1.2,0,1.7c0.5,0.5,1.2,0.5,1.7,0C20.8,26,20.8,25.2,20.4,24.7
		z"/>
	<path class="st0" d="M25.5,20c-0.2-0.6-0.8-1-1.4-0.9c-0.6,0.2-1,0.8-0.9,1.4c0.1,0.6,0.8,1,1.4,0.9C25.3,21.3,25.7,20.6,25.5,20z"
		/>
	<path class="st0" d="M47.6,32.5c0,0.7-0.5,1.2-1.2,1.2c-0.7,0-1.2-0.5-1.2-1.2c0-0.7,0.5-1.2,1.2-1.2
		C47.1,31.4,47.6,31.9,47.6,32.5z"/>
	<path class="st0" d="M45.8,25.3c-0.1-0.6-0.8-1-1.4-0.9c-0.6,0.2-1,0.8-0.9,1.4c0.2,0.6,0.8,1,1.4,0.9C45.6,26.6,46,25.9,45.8,25.3
		z"/>
	<path class="st0" d="M40.7,19.5c-0.5-0.5-1.2-0.5-1.7,0c-0.5,0.5-0.5,1.2,0,1.7c0.5,0.5,1.2,0.5,1.7,0
		C41.1,20.7,41.1,19.9,40.7,19.5z"/>
	<path class="st0" d="M32.6,45.8c-0.6-0.2-1.3,0-1.5,0.6s0,1.3,0.6,1.5s1.3,0,1.5-0.6C33.5,46.8,33.2,46.1,32.6,45.8z"/>
	<path class="st0" d="M20.7,39.2c-0.1-0.6-0.8-1-1.4-0.9c-0.6,0.1-1,0.8-0.9,1.4c0.2,0.6,0.8,1,1.4,0.9
		C20.4,40.5,20.8,39.9,20.7,39.2z"/>
	<path class="st0" d="M25.2,44c-0.5-0.5-1.2-0.5-1.7,0c-0.5,0.5-0.5,1.2,0,1.7c0.5,0.5,1.2,0.5,1.7,0C25.7,45.2,25.7,44.4,25.2,44z"
		/>
	<path class="st0" d="M45.5,38.7c-0.5-0.5-1.2-0.5-1.7,0c-0.5,0.5-0.5,1.2,0,1.7c0.5,0.5,1.2,0.5,1.7,0C46,39.9,46,39.1,45.5,38.7z"
		/>
	<path class="st0" d="M41,44.5c-0.2-0.6-0.8-1-1.4-0.9c-0.6,0.1-1,0.8-0.9,1.4c0.1,0.6,0.8,1,1.4,0.9C40.7,45.8,41.1,45.1,41,44.5z"
		/>
	<path class="st0" d="M34.2,37.9c0.6,0,1.1-0.7,0.9-1.3l-3-8c0,0,0,0,0,0c-0.2-0.4-0.6-0.7-1-0.7s-0.9,0.3-1,0.7c0,0,0,0,0,0l-3,8
		c-0.2,0.5,0.1,1,0.5,1.2c0.5,0.2,1-0.1,1.2-0.5l0.5-1.4h3.6l0.5,1.4C33.4,37.6,33.8,37.9,34.2,37.9z M29.9,34l1.1-2.9l1.1,2.9H29.9
		z"/>
	<path class="st0" d="M36.7,37.6c0.4,0.3,1,0.2,1.3-0.2l2.3-3.2l2.3,3.2c0.3,0.4,0.9,0.5,1.3,0.2c0.4-0.3,0.5-0.9,0.2-1.3l-2.7-3.8
		l2.3-3.2c0.3-0.4,0.2-1-0.2-1.3c-0.4-0.3-1-0.2-1.3,0.2l-1.9,2.7l-1.9-2.7c-0.3-0.4-0.9-0.5-1.3-0.2c-0.4,0.3-0.5,0.9-0.2,1.3
		l2.3,3.2l-2.7,3.8C36.2,36.7,36.3,37.3,36.7,37.6z"/>
	<path class="st0" d="M26.7,28.7c0-0.5-0.4-0.9-0.9-0.9h-4.5c-0.5,0-0.9,0.4-0.9,0.9s0.4,0.9,0.9,0.9h1.3v7.1c0,0.5,0.4,0.9,0.9,0.9
		s0.9-0.4,0.9-0.9v-7.1h1.3C26.3,29.7,26.7,29.2,26.7,28.7z"/>
</g>
</svg>
