<?xml version="1.0" encoding="utf-8"?>
<!-- Generator: Adobe Illustrator 25.4.1, SVG Export Plug-In . SVG Version: 6.00 Build 0)  -->
<svg version="1.1" id="圖層_1" xmlns="http://www.w3.org/2000/svg" xmlns:xlink="http://www.w3.org/1999/xlink" x="0px" y="0px"
	 viewBox="0 0 64 64" style="enable-background:new 0 0 64 64;" xml:space="preserve">
<style type="text/css">
	.st0{fill:#FFFFFF;}
</style>
<g id="surface1">
	<path class="st0" d="M64,23.3c0-1.3-0.2-2.7-0.6-3.9c-0.2-0.5-0.7-0.8-1.2-0.6c-0.5,0.2-0.8,0.7-0.6,1.2c0.4,1.1,0.5,2.2,0.5,3.3
		c0,6.4-5.7,11.6-12.7,11.6c-0.6,0-1.1,0-1.7-0.1c-1.1-0.1-2.1,0.3-2.7,1.2l-1.6,2.3v-3.1c0-1-0.5-1.9-1.3-2.4
		c-3.3-2.2-5.3-5.7-5.3-9.4c0-6.4,5.7-11.6,12.7-11.6c4,0,7.8,1.8,10.2,4.7c0.3,0.4,0.9,0.5,1.3,0.1c0.4-0.3,0.5-0.9,0.1-1.3
		c-2-2.5-5-4.3-8.2-5c-1.4-2.2-3.9-3.6-6.5-3.6c-1.6,0-3.2,0.5-4.6,1.5c-1.3-1-2.9-1.5-4.6-1.5c-1.6,0-3.2,0.5-4.6,1.5
		c-1.3-0.9-2.9-1.5-4.6-1.5c-1.6,0-3.2,0.5-4.6,1.5c-1.3-0.9-2.8-1.5-4.6-1.5c-1.6,0-3.2,0.5-4.6,1.5c-1.3-0.9-2.9-1.5-4.6-1.5
		c-4.2,0-7.7,3.4-7.7,7.7v2.5C1,17.1,0,18.2,0,19.6v21.7c0,0.5,0.4,0.9,0.9,0.9c0.5,0,0.9-0.4,0.9-0.9V19.6c0-0.3,0.2-0.7,0.5-0.8
		v2.8c0,1.7,1.4,3.1,3.1,3.1s3.1-1.4,3.1-3.1v-2.9h2.9v2.2c0,0.5,0.4,0.9,0.9,0.9c0.5,0,0.9-0.4,0.9-0.9v-6.5c0-1.8-1.5-3.3-3.3-3.3
		c-1.8,0-3.3,1.5-3.3,3.3v7.2c0,0.7-0.6,1.2-1.2,1.2s-1.2-0.6-1.2-1.2v-7.2c0-3.2,2.6-5.8,5.8-5.8c3.2,0,5.8,2.6,5.8,5.8v7.2
		c0,0.7-0.6,1.2-1.2,1.2c-0.5,0-0.9,0.4-0.9,0.9c0,0.5,0.4,0.9,0.9,0.9c1.7,0,3.1-1.4,3.1-3.1v-2.9h2.9v2.9c0,1.7,1.4,3.1,3.1,3.1
		s3.1-1.4,3.1-3.1v-2.9h2.9v2.9c0,1.7,1.4,3.1,3.1,3.1c0.8,0,1.6-0.3,2.2-0.9c0,1.1,0.2,2.1,0.5,3.1H9.4c-2,0-3.6,1.6-3.6,3.6v15.8
		c0,2,1.6,3.6,3.6,3.6h37.7c2,0,3.6-1.6,3.6-3.6v-9.5c1.4-0.1,2.7-0.4,3.9-0.8v18.6c0,0.5-0.4,0.9-0.9,0.9H2.8
		c-0.5,0-0.9-0.4-0.9-0.9v-8.7c0-0.5-0.4-0.9-0.9-0.9c-0.5,0-0.9,0.4-0.9,0.9v8.7c0,1.5,1.3,2.8,2.8,2.8h50.9c1.5,0,2.8-1.3,2.8-2.8
		V35.1C60.9,32.8,64,28.4,64,23.3z M10,12.9c0.8,0,1.5,0.7,1.5,1.5v2.4H8.5v-2.4C8.5,13.6,9.2,12.9,10,12.9z M47.5,36.6
		c0.4,0.1,0.8,0.1,1.3,0.1v0.7h-2.5l0.2-0.3C46.8,36.8,47.1,36.6,47.5,36.6z M41.1,34.3c0.3,0.2,0.5,0.5,0.5,0.9v2.3h-1.8v-4.1
		C40.1,33.6,40.6,34,41.1,34.3z M36.8,16.8h-0.9v-2.4c0-0.8,0.7-1.5,1.5-1.5c0.8,0,1.4,0.6,1.4,1.4C38,15,37.4,15.9,36.8,16.8z
		 M50.2,9.9c-0.2,0-0.5,0-0.7,0c-1.9,0-3.7,0.3-5.3,0.9c-0.2-0.5-0.5-0.9-0.9-1.3c0.9-0.6,2-1,3.2-1C47.8,8.6,49.1,9.1,50.2,9.9z
		 M42.4,11.6c-0.7,0.4-1.4,0.8-2.1,1.3c-0.5-1.1-1.7-1.9-3-1.9c-0.7,0-1.4,0.2-1.9,0.6c-0.3-0.8-0.7-1.5-1.2-2.2c0.9-0.6,2-1,3.2-1
		C39.5,8.6,41.4,9.8,42.4,11.6z M17.7,16.8v-2.4c0-0.8,0.7-1.5,1.5-1.5s1.5,0.7,1.5,1.5v2.4H17.7z M24.9,21.5c0,0.7-0.6,1.2-1.2,1.2
		s-1.2-0.6-1.2-1.2v-7.2c0-1.8-1.5-3.3-3.3-3.3c-0.7,0-1.4,0.2-1.9,0.6c-0.3-0.8-0.7-1.5-1.2-2.2c0.9-0.6,2.1-1,3.2-1
		c3.2,0,5.8,2.6,5.8,5.8V21.5z M26.8,16.8v-2.4c0-0.8,0.7-1.5,1.5-1.5c0.8,0,1.5,0.7,1.5,1.5v2.4H26.8z M34,21.5
		c0,0.7-0.6,1.2-1.2,1.2s-1.2-0.6-1.2-1.2v-7.2c0-1.8-1.5-3.3-3.3-3.3c-0.7,0-1.4,0.2-1.9,0.6c-0.3-0.8-0.7-1.5-1.2-2.2
		c0.9-0.6,2-1,3.2-1c3.2,0,5.8,2.6,5.8,5.8V21.5z M37.8,31.4v6h-8.7v-8.7h7C36.6,29.7,37.2,30.6,37.8,31.4z M27.3,39.3V48h-8.7v-8.7
		H27.3z M18.6,37.4v-8.7h8.7v8.7H18.6z M29.2,39.3h8.7V48h-8.7V39.3z M9.4,28.7h7.4v8.7H7.6v-7C7.6,29.5,8.4,28.7,9.4,28.7z
		 M7.6,46.2v-7h9.1V48H9.4C8.4,48,7.6,47.2,7.6,46.2z M47.1,48h-7.4v-8.7h1.8V40c0,0.6,0.4,1.1,0.9,1.2c0.1,0,0.1,0,0.2,0
		c-0.2,0-0.3,0.1-0.5,0.2c-0.4,0.4-0.4,1,0,1.3l0.8,0.8l-0.8,0.8c-0.4,0.4-0.4,1,0,1.3c0.2,0.2,0.4,0.3,0.7,0.3s0.5-0.1,0.7-0.3
		l0.8-0.8l0.8,0.8c0.2,0.2,0.4,0.3,0.7,0.3s0.5-0.1,0.7-0.3c0.4-0.4,0.4-1,0-1.3l-0.8-0.8l0.8-0.8c0.4-0.4,0.4-1,0-1.3s-1-0.4-1.3,0
		l-0.8,0.8l-0.8-0.8c-0.1-0.1-0.3-0.2-0.5-0.3c0.3-0.1,0.6-0.2,0.8-0.5l1.1-1.5h3.8v7C48.8,47.2,48,48,47.1,48z"/>
	<path class="st0" d="M46,27.5c0.5,0.2,1-0.1,1.2-0.5l0.4-0.9H50l0.3,0.9c0.2,0.5,0.7,0.7,1.2,0.5c0.5-0.2,0.7-0.7,0.5-1.2l-2.3-6.1
		c0,0,0,0,0,0c-0.2-0.4-0.6-0.7-1-0.7s-0.8,0.3-1,0.7c0,0,0,0,0,0l-2.3,6.1C45.3,26.8,45.5,27.4,46,27.5z M49.3,24.2h-1.1l0.5-1.4
		L49.3,24.2z"/>
	<path class="st0" d="M53.1,27.3c0.4,0.3,1,0.2,1.3-0.2l1.6-2.3l1.6,2.3c0.3,0.4,0.9,0.5,1.3,0.2c0.4-0.3,0.5-0.9,0.2-1.3l-2-2.8
		l1.7-2.4c0.3-0.4,0.2-1-0.2-1.3c-0.4-0.3-1-0.2-1.3,0.2L56,21.6l-1.3-1.8c-0.3-0.4-0.9-0.5-1.3-0.2c-0.4,0.3-0.5,0.9-0.2,1.3
		l1.7,2.4l-2,2.8C52.6,26.5,52.7,27,53.1,27.3z"/>
	<path class="st0" d="M43.1,27.5c0.5,0,0.9-0.4,0.9-0.9v-5.3h0.8c0.5,0,0.9-0.4,0.9-0.9c0-0.5-0.4-0.9-0.9-0.9h-3.4
		c-0.5,0-0.9,0.4-0.9,0.9c0,0.5,0.4,0.9,0.9,0.9h0.8v5.3C42.1,27.1,42.6,27.5,43.1,27.5z"/>
	<path class="st0" d="M10.6,32.6h3.1c0.5,0,0.9-0.4,0.9-0.9c0-0.5-0.4-0.9-0.9-0.9h-3.1c-0.5,0-0.9,0.4-0.9,0.9
		C9.7,32.2,10.1,32.6,10.6,32.6z"/>
	<path class="st0" d="M24.5,32.7h-3.1c-0.5,0-0.9,0.4-0.9,0.9c0,0.5,0.4,0.9,0.9,0.9h3.1c0.5,0,0.9-0.4,0.9-0.9
		C25.5,33.1,25,32.7,24.5,32.7z"/>
	<path class="st0" d="M31.9,34.6H35c0.5,0,0.9-0.4,0.9-0.9c0-0.5-0.4-0.9-0.9-0.9h-3.1c-0.5,0-0.9,0.4-0.9,0.9
		C30.9,34.1,31.4,34.6,31.9,34.6z"/>
	<path class="st0" d="M21.4,44.5h3.1c0.5,0,0.9-0.4,0.9-0.9c0-0.5-0.4-0.9-0.9-0.9h-3.1c-0.5,0-0.9,0.4-0.9,0.9
		C20.4,44.1,20.9,44.5,21.4,44.5z"/>
	<path class="st0" d="M12.3,33.8h-1.7c-0.5,0-0.9,0.4-0.9,0.9c0,0.5,0.4,0.9,0.9,0.9h1.7c0.5,0,0.9-0.4,0.9-0.9
		C13.3,34.2,12.9,33.8,12.3,33.8z"/>
</g>
</svg>
