<?xml version="1.0" encoding="utf-8"?>
<!-- Generator: Adobe Illustrator 25.4.1, SVG Export Plug-In . SVG Version: 6.00 Build 0)  -->
<svg version="1.1" id="圖層_1" xmlns="http://www.w3.org/2000/svg" xmlns:xlink="http://www.w3.org/1999/xlink" x="0px" y="0px"
	 viewBox="0 0 64 64" style="enable-background:new 0 0 64 64;" xml:space="preserve">
<style type="text/css">
	.st0{fill:#FFFFFF;}
</style>
<g id="surface1">
	<path class="st0" d="M26.9,43.3c1.8,0.6,3.6,0.9,5.5,0.9c9.5,0,17.3-7.8,17.3-17.3c0-4.6-1.8-9-5.1-12.2c-3.3-3.3-7.6-5.1-12.2-5.1
		C22.8,9.5,15,17.3,15,26.8c0,5.8,2.9,11.1,7.6,14.3c0.4,0.3,1,0.2,1.3-0.3c0.3-0.4,0.2-1-0.2-1.3c-4.3-2.9-6.8-7.7-6.8-12.8
		c0-8.5,6.9-15.4,15.4-15.4c4.1,0,8,1.6,10.9,4.5c2.9,2.9,4.5,6.8,4.5,10.9c0,8.5-6.9,15.4-15.4,15.4c-1.7,0-3.3-0.3-4.9-0.8
		c-0.5-0.2-1,0.1-1.2,0.6S26.4,43.1,26.9,43.3z"/>
	<path class="st0" d="M53.6,26.8c0-4.3-1.3-8.4-3.6-11.9c-0.3-0.4-0.9-0.5-1.3-0.2c-0.4,0.3-0.5,0.9-0.2,1.3c2.2,3.2,3.3,7,3.3,10.9
		c0,10.7-8.7,19.4-19.4,19.4c-5.2,0-10.1-2-13.7-5.7s-5.7-8.6-5.7-13.7c0-10.7,8.7-19.4,19.4-19.4c5,0,9.8,1.9,13.4,5.4
		c0.4,0.4,1,0.3,1.3,0c0.4-0.4,0.3-1,0-1.3c-1.3-1.2-2.8-2.3-4.3-3.2l2.4-2.4l6.7,6.7c0.4,0.4,0.8,0.5,1.3,0.5c0.5,0,1-0.2,1.3-0.5
		l7.6-7.6l0,1.7c0,0.5,0.4,0.9,0.9,0.9S64,7.1,64,6.6l0-3.9c0-0.5-0.4-0.9-0.9-0.9h-3.9c-0.5,0-0.9,0.4-0.9,0.9s0.4,0.9,0.9,0.9h1.7
		l-7.6,7.6l-6.7-6.7C46.2,4.2,45.7,4,45.2,4c-0.5,0-1,0.2-1.3,0.5L41,7.4c-2.7-1.2-5.6-1.8-8.7-1.8C20.6,5.5,11,15.1,11,26.8
		c0,3,0.6,6,1.8,8.7L11.4,37L7.3,33c-0.4-0.4-1-0.4-1.3,0l-5.7,5.7c-0.4,0.4-0.4,1,0,1.3c0.2,0.2,0.4,0.3,0.7,0.3
		c0.2,0,0.5-0.1,0.7-0.3l5-5l3.4,3.4c0.7,0.7,1.9,0.7,2.6,0l1.1-1.1c0.9,1.7,2.1,3.2,3.5,4.6c3.1,3.1,7,5.1,11.2,5.9v2.8
		c0,0.2-0.1,0.5-0.3,0.6c0,0-0.9,0.9-1,1.1c-0.3,0.4-0.2,1,0.3,1.3c0.4,0.3,1,0.2,1.3-0.3c0-0.1,0.8-0.8,0.8-0.8
		c0.5-0.5,0.8-1.2,0.8-2v-2.5c0.7,0.1,1.3,0.1,2,0.1c0.7,0,1.4,0,2-0.1v2.5c0,0.7,0.3,1.4,0.8,2l0.6,0.6c0.2,0.2,0.4,0.6,0.4,0.9
		c0,0.4-0.1,0.7-0.4,0.9l-0.6,0.6c-0.5,0.5-0.8,1.2-0.8,2v1.2c0,0.6-0.2,1.1-0.6,1.4s-0.9,0.6-1.5,0.6c-1.1,0-1.9-1-1.9-2.1v-1.2
		c0-0.4-0.1-0.7-0.2-1c-0.2-0.5-0.7-0.7-1.2-0.5c-0.5,0.2-0.7,0.7-0.5,1.2c0,0.1,0.1,0.2,0.1,0.3v1.2c0,2.1,1.7,3.9,3.7,3.9
		c0.1,0,0.1,0,0.1,0c1,0,2-0.4,2.7-1.1c0.8-0.7,1.2-1.7,1.2-2.8v-1.2c0-0.2,0.1-0.5,0.3-0.6l0.6-0.6c0.6-0.6,0.9-1.4,0.9-2.3
		c0-0.9-0.3-1.7-0.9-2.3l-0.6-0.6c-0.2-0.2-0.3-0.4-0.3-0.6v-2.8C46.1,46,53.6,37.3,53.6,26.8z"/>
	<path class="st0" d="M28.6,32.1l0.6-1.5h3.9l0.6,1.5c0.2,0.5,0.7,0.7,1.2,0.5c0.5-0.2,0.7-0.7,0.5-1.2L32.2,23c0,0,0,0,0,0
		c-0.2-0.4-0.6-0.7-1-0.7s-0.9,0.3-1,0.7c0,0,0,0,0,0l-3.2,8.4c-0.2,0.5,0.1,1,0.5,1.2C27.9,32.8,28.4,32.6,28.6,32.1z M31.1,25.5
		l1.2,3.2h-2.5L31.1,25.5z"/>
	<path class="st0" d="M37.2,32.4c0.4,0.3,1,0.2,1.3-0.2l2.5-3.5l2.5,3.5c0.3,0.4,0.9,0.5,1.3,0.2c0.4-0.3,0.5-0.9,0.2-1.3l-2.8-4
		l2.4-3.4c0.3-0.4,0.2-1-0.2-1.3s-1-0.2-1.3,0.2l-2,2.9l-2-2.9c-0.3-0.4-0.9-0.5-1.3-0.2s-0.5,0.9-0.2,1.3l2.4,3.4l-2.8,4
		C36.7,31.5,36.8,32.1,37.2,32.4z"/>
	<path class="st0" d="M23.2,32.6c0.5,0,0.9-0.4,0.9-0.9V24h1.4c0.5,0,0.9-0.4,0.9-0.9s-0.4-0.9-0.9-0.9h-4.7c-0.5,0-0.9,0.4-0.9,0.9
		s0.4,0.9,0.9,0.9h1.4v7.6C22.3,32.2,22.7,32.6,23.2,32.6z"/>
	<path class="st0" d="M3.8,15.7c0.5,0.2,1,0,1.2-0.5l5-12c0.2-0.5,0-1-0.5-1.2C9,1.8,8.5,2,8.3,2.5l-5,12
		C3.1,14.9,3.3,15.5,3.8,15.7z"/>
	<path class="st0" d="M3.2,8.4c1.7,0,3.2-1.6,3.2-3.5c0-1.9-1.4-3.5-3.2-3.5C1.4,1.3,0,2.9,0,4.9C0,6.8,1.4,8.4,3.2,8.4z M3.2,3.2
		c0.7,0,1.3,0.7,1.3,1.6c0,0.9-0.6,1.7-1.3,1.7S1.9,5.8,1.9,4.9C1.9,4,2.4,3.2,3.2,3.2z"/>
	<path class="st0" d="M6.8,13.1c0,1.9,1.4,3.5,3.2,3.5s3.2-1.6,3.2-3.5c0-1.9-1.4-3.5-3.2-3.5S6.8,11.1,6.8,13.1z M11.2,13.1
		c0,0.9-0.6,1.6-1.3,1.6S8.7,14,8.7,13.1s0.6-1.6,1.3-1.6S11.2,12.2,11.2,13.1z"/>
	<path class="st0" d="M63.1,20.6H61v-2.1c0-0.5-0.4-0.9-0.9-0.9s-0.9,0.4-0.9,0.9v2.1H57c-0.5,0-0.9,0.4-0.9,0.9s0.4,0.9,0.9,0.9
		h2.1v2.1c0,0.5,0.4,0.9,0.9,0.9s0.9-0.4,0.9-0.9v-2.1h2.1c0.5,0,0.9-0.4,0.9-0.9S63.6,20.6,63.1,20.6z"/>
	<path class="st0" d="M16.4,45.2h-6.1c-0.5,0-0.9,0.4-0.9,0.9S9.8,47,10.3,47h6.1c0.5,0,0.9-0.4,0.9-0.9S16.9,45.2,16.4,45.2z"/>
	<path class="st0" d="M57.7,39.3h-6.1c-0.5,0-0.9,0.4-0.9,0.9s0.4,0.9,0.9,0.9h6.1c0.5,0,0.9-0.4,0.9-0.9S58.2,39.3,57.7,39.3z"/>
	<path class="st0" d="M16.4,48.9h-6.1c-0.5,0-0.9,0.4-0.9,0.9s0.4,0.9,0.9,0.9h6.1c0.5,0,0.9-0.4,0.9-0.9S16.9,48.9,16.4,48.9z"/>
	<path class="st0" d="M55.8,36.6c0,0.6-0.5,1.1-1.1,1.1c-0.6,0-1.1-0.5-1.1-1.1c0-0.6,0.5-1.1,1.1-1.1C55.3,35.5,55.8,36,55.8,36.6z
		"/>
	<path class="st0" d="M55.8,44c0,0.6-0.5,1.1-1.1,1.1c-0.6,0-1.1-0.5-1.1-1.1s0.5-1.1,1.1-1.1C55.3,42.9,55.8,43.4,55.8,44z"/>
</g>
</svg>
