<?xml version="1.0" encoding="utf-8"?>
<!-- Generator: Adobe Illustrator 25.4.1, SVG Export Plug-In . SVG Version: 6.00 Build 0)  -->
<svg version="1.1" id="圖層_1" xmlns="http://www.w3.org/2000/svg" xmlns:xlink="http://www.w3.org/1999/xlink" x="0px" y="0px"
	 viewBox="0 0 64 64" style="enable-background:new 0 0 64 64;" xml:space="preserve">
<style type="text/css">
	.st0{fill:#FFFFFF;}
</style>
<g id="surface1">
	<path class="st0" d="M57.8,5.5H19c-0.5,0-0.9,0.4-0.9,0.9c0,0.5,0.4,0.9,0.9,0.9h38.8c2.4,0,4.3,1.9,4.3,4.3v17.1
		c0,0.5,0.4,0.9,0.9,0.9c0.5,0,0.9-0.4,0.9-0.9V11.7C64,8.3,61.2,5.5,57.8,5.5z"/>
	<path class="st0" d="M63.1,32.4c-0.5,0-0.9,0.4-0.9,0.9v8.2c0,1.3-0.6,2.6-1.6,3.4v-3.8c0-0.9-0.3-1.7-0.9-2.3V11.7
		c0-1-0.8-1.9-1.9-1.9H6.2c-1,0-1.9,0.8-1.9,1.9v29.9c0,1,0.8,1.9,1.9,1.9H31v9.8h-5.4v-5.4h1.6c0.5,0,0.9-0.4,0.9-0.9
		c0-0.5-0.4-0.9-0.9-0.9H6.2c-2.4,0-4.3-1.9-4.3-4.3V11.7c0-2.4,1.9-4.3,4.3-4.3h8.3c0.5,0,0.9-0.4,0.9-0.9c0-0.5-0.4-0.9-0.9-0.9
		H6.2C2.8,5.5,0,8.3,0,11.7v29.9c0,3.4,2.8,6.2,6.2,6.2h17.5v5.4h-1.4c-0.5,0-0.9,0.4-0.9,0.9c0,0.5,0.4,0.9,0.9,0.9H31v0.1
		c0,1.9,1.5,3.4,3.4,3.4h22.7c1.9,0,3.4-1.5,3.4-3.4v-8c2.1-1,3.5-3.2,3.5-5.6v-8.2C64,32.8,63.6,32.4,63.1,32.4z M6.2,41.6V11.7
		h51.6v26.1c-0.2,0-0.5-0.1-0.7-0.1H34.4c-1.9,0-3.4,1.5-3.4,3.4v0.5H6.2z M58.7,55.1c0,0.9-0.7,1.6-1.6,1.6H34.4
		c-0.9,0-1.6-0.7-1.6-1.6v-14c0-0.9,0.7-1.6,1.6-1.6h22.7c0.9,0,1.6,0.7,1.6,1.6V55.1z"/>
	<path class="st0" d="M20.7,15.4C20.7,15.4,20.7,15.4,20.7,15.4c-0.2-0.4-0.6-0.7-1-0.7c0,0,0,0,0,0c-0.5,0-0.9,0.3-1,0.7
		c0,0,0,0,0,0l-3.2,8.4c-0.2,0.5,0.1,1,0.5,1.2c0.5,0.2,1-0.1,1.2-0.5l0.6-1.5h3.9l0.6,1.5c0.4,1.1,2.2,0.5,1.7-0.7L20.7,15.4z
		 M18.4,21.1l1.2-3.2l1.2,3.2H18.4z"/>
	<path class="st0" d="M27,24.5l2.5-3.5l2.4,3.5c0.2,0.3,0.5,0.4,0.8,0.4c0.2,0,0.4-0.1,0.5-0.2c0.4-0.3,0.5-0.9,0.2-1.3l-2.8-4
		L33,16c0.3-0.4,0.2-1-0.2-1.3c-0.4-0.3-1-0.2-1.3,0.2l-2,2.9l-2-2.9c-0.3-0.4-0.9-0.5-1.3-0.2c-0.4,0.3-0.5,0.9-0.2,1.3l2.4,3.4
		l-2.8,4c-0.3,0.4-0.2,1,0.2,1.3c0.2,0.1,0.3,0.2,0.5,0.2C26.5,24.9,26.8,24.8,27,24.5z"/>
	<path class="st0" d="M9.4,16.4h1.4V24c0,0.5,0.4,0.9,0.9,0.9c0.5,0,0.9-0.4,0.9-0.9v-7.6h1.4c0.5,0,0.9-0.4,0.9-0.9
		c0-0.5-0.4-0.9-0.9-0.9H9.4c-0.5,0-0.9,0.4-0.9,0.9C8.5,16,8.9,16.4,9.4,16.4z"/>
	<path class="st0" d="M32.7,30.1h-6c-0.5,0-0.9,0.4-0.9,0.9s0.4,0.9,0.9,0.9h6c0.5,0,0.9-0.4,0.9-0.9S33.2,30.1,32.7,30.1z"/>
	<path class="st0" d="M33.6,34.8c0-0.5-0.4-0.9-0.9-0.9h-6c-0.5,0-0.9,0.4-0.9,0.9c0,0.5,0.4,0.9,0.9,0.9h6
		C33.2,35.8,33.6,35.4,33.6,34.8z"/>
	<path class="st0" d="M38.7,35.8c0.5,0,0.9-0.4,0.9-0.9V15.4c0-0.5-0.4-0.9-0.9-0.9c-0.5,0-0.9,0.4-0.9,0.9v19.4
		C37.8,35.4,38.2,35.8,38.7,35.8z"/>
	<path class="st0" d="M42.4,47.9v-3c0-0.9-0.8-1.7-1.7-1.7h-5.3c-0.9,0-1.7,0.8-1.7,1.7v3c0,0.9,0.8,1.7,1.7,1.7h5.3
		C41.6,49.6,42.4,48.8,42.4,47.9z M40.5,47.7h-4.9v-2.6h4.9V47.7z"/>
	<path class="st0" d="M38.4,51.7h-2.5c-0.5,0-0.9,0.4-0.9,0.9c0,0.5,0.4,0.9,0.9,0.9h2.5c0.5,0,0.9-0.4,0.9-0.9
		C39.4,52.1,39,51.7,38.4,51.7z"/>
	<path class="st0" d="M44.2,51.7h-2.5c-0.5,0-0.9,0.4-0.9,0.9c0,0.5,0.4,0.9,0.9,0.9h2.5c0.5,0,0.9-0.4,0.9-0.9
		C45.1,52.1,44.7,51.7,44.2,51.7z"/>
	<path class="st0" d="M49.8,51.7h-2.5c-0.5,0-0.9,0.4-0.9,0.9c0,0.5,0.4,0.9,0.9,0.9h2.5c0.5,0,0.9-0.4,0.9-0.9
		C50.8,52.1,50.4,51.7,49.8,51.7z"/>
	<path class="st0" d="M55.6,51.7h-2.5c-0.5,0-0.9,0.4-0.9,0.9c0,0.5,0.4,0.9,0.9,0.9h2.5c0.5,0,0.9-0.4,0.9-0.9
		C56.5,52.1,56.1,51.7,55.6,51.7z"/>
	<path class="st0" d="M44.3,30.3c1.2,0.8,2,1,3.1,1.1v1c0,0.5,0.4,0.9,0.9,0.9c0.5,0,0.9-0.4,0.9-0.9v-1.1c2.1-0.4,3.3-2.1,3.6-3.7
		c0.3-2.1-0.7-3.9-2.8-4.6c-0.3-0.1-0.5-0.2-0.8-0.3v-4.4c0.7,0.2,1.1,0.5,1.1,0.5c0.4,0.3,1,0.3,1.3-0.1c0.3-0.4,0.3-1-0.1-1.3
		c-0.1,0-0.9-0.8-2.4-1.1v-0.9c0-0.5-0.4-0.9-0.9-0.9c-0.5,0-0.9,0.4-0.9,0.9v1c-0.1,0-0.3,0.1-0.4,0.1c-1.3,0.4-2.3,1.5-2.6,3
		c-0.2,1.3,0.2,2.6,1.1,3.3c0.5,0.4,1.1,0.7,1.9,1.1v5.6c-0.7-0.1-1.2-0.2-2-0.8c-0.4-0.3-1-0.2-1.3,0.3S43.9,30.1,44.3,30.3z
		 M46.6,21.4c-0.4-0.3-0.5-0.9-0.4-1.5c0.1-0.6,0.5-1.2,1.2-1.5v3.5C47.1,21.7,46.8,21.6,46.6,21.4z M49.4,24.8
		c1.7,0.6,1.6,2.1,1.5,2.5c-0.1,0.9-0.7,1.8-1.7,2.1v-4.7C49.3,24.7,49.3,24.8,49.4,24.8z"/>
	<path class="st0" d="M17.6,27.8h-4.9c-2.8,0-5,2.3-5,5c0,2.8,2.3,5.1,5,5.1h4.9c2.8,0,5-2.3,5-5.1C22.6,30.1,20.3,27.8,17.6,27.8z
		 M17.6,36.1h-4.9c-1.8,0-3.2-1.4-3.2-3.2c0-1.8,1.4-3.2,3.2-3.2h4.9c1.8,0,3.2,1.4,3.2,3.2C20.7,34.6,19.3,36.1,17.6,36.1z"/>
	<path class="st0" d="M16.4,31l-1.8,1.8l-0.9-0.9c-0.4-0.4-1-0.4-1.3,0c-0.4,0.4-0.4,1,0,1.3l1.6,1.6c0.2,0.2,0.4,0.3,0.7,0.3
		c0.2,0,0.5-0.1,0.7-0.3l2.5-2.5c0.4-0.4,0.4-1,0-1.3S16.8,30.7,16.4,31z"/>
</g>
</svg>
