<?xml version="1.0" encoding="utf-8"?>
<!-- Generator: Adobe Illustrator 25.4.1, SVG Export Plug-In . SVG Version: 6.00 Build 0)  -->
<svg version="1.1" id="圖層_1" xmlns="http://www.w3.org/2000/svg" xmlns:xlink="http://www.w3.org/1999/xlink" x="0px" y="0px"
	 viewBox="0 0 64 64" style="enable-background:new 0 0 64 64;" xml:space="preserve">
<style type="text/css">
	.st0{fill:#FFFFFF;}
</style>
<g id="surface1">
	<path class="st0" d="M20.4,25.6c1.2,0,2.1-1,2.1-2.1v-2.1c0-1.2-1-2.1-2.1-2.1H7.6c-1.2,0-2.1,1-2.1,2.1v2.1c0,1.2,1,2.1,2.1,2.1
		H20.4z M7.6,21.3h12.8v2.1H7.6V21.3z"/>
	<path class="st0" d="M9.7,27.7c-1.8,0-3.2,1.4-3.2,3.2s1.4,3.2,3.2,3.2c1.8,0,3.2-1.4,3.2-3.2S11.5,27.7,9.7,27.7z M9.7,32
		c-0.6,0-1.1-0.5-1.1-1.1s0.5-1.1,1.1-1.1c0.6,0,1.1,0.5,1.1,1.1S10.3,32,9.7,32z"/>
	<path class="st0" d="M9.7,35.2c-1.8,0-3.2,1.4-3.2,3.2c0,1.8,1.4,3.2,3.2,3.2c1.8,0,3.2-1.4,3.2-3.2C12.9,36.6,11.5,35.2,9.7,35.2z
		 M9.7,39.5c-0.6,0-1.1-0.5-1.1-1.1c0-0.6,0.5-1.1,1.1-1.1c0.6,0,1.1,0.5,1.1,1.1C10.8,39,10.3,39.5,9.7,39.5z"/>
	<path class="st0" d="M9.7,42.7c-1.8,0-3.2,1.4-3.2,3.2c0,1.8,1.4,3.2,3.2,3.2c1.8,0,3.2-1.4,3.2-3.2C12.9,44.1,11.5,42.7,9.7,42.7z
		 M9.7,46.9c-0.6,0-1.1-0.5-1.1-1.1s0.5-1.1,1.1-1.1c0.6,0,1.1,0.5,1.1,1.1S10.3,46.9,9.7,46.9z"/>
	<path class="st0" d="M18.2,27.7c-1.8,0-3.2,1.4-3.2,3.2s1.4,3.2,3.2,3.2s3.2-1.4,3.2-3.2S20,27.7,18.2,27.7z M18.2,32
		c-0.6,0-1.1-0.5-1.1-1.1s0.5-1.1,1.1-1.1s1.1,0.5,1.1,1.1S18.8,32,18.2,32z"/>
	<path class="st0" d="M18.2,35.2c-1.8,0-3.2,1.4-3.2,3.2c0,1.8,1.4,3.2,3.2,3.2s3.2-1.4,3.2-3.2C21.4,36.6,20,35.2,18.2,35.2z
		 M18.2,39.5c-0.6,0-1.1-0.5-1.1-1.1c0-0.6,0.5-1.1,1.1-1.1s1.1,0.5,1.1,1.1C19.3,39,18.8,39.5,18.2,39.5z"/>
	<path class="st0" d="M18.2,42.7c-1.8,0-3.2,1.4-3.2,3.2c0,1.8,1.4,3.2,3.2,3.2s3.2-1.4,3.2-3.2C21.4,44.1,20,42.7,18.2,42.7z
		 M18.2,46.9c-0.6,0-1.1-0.5-1.1-1.1s0.5-1.1,1.1-1.1s1.1,0.5,1.1,1.1S18.8,46.9,18.2,46.9z"/>
	<path class="st0" d="M51.2,42.7c0,0.6,0.5,1.1,1.1,1.1s1.1-0.5,1.1-1.1c0-2.6-2.3-4.8-5.3-5.3v-1.1c0-0.6-0.5-1.1-1.1-1.1
		s-1.1,0.5-1.1,1.1v1.1c-3,0.4-5.3,2.6-5.3,5.3s2.3,4.8,5.3,5.3v6.4c-1.8-0.4-3.2-1.6-3.2-3.1c0-0.6-0.5-1.1-1.1-1.1
		c-0.6,0-1.1,0.5-1.1,1.1c0,2.6,2.3,4.8,5.3,5.3v1.1c0,0.6,0.5,1.1,1.1,1.1s1.1-0.5,1.1-1.1v-1.1c3-0.4,5.3-2.6,5.3-5.3
		S51,46.4,48,45.9v-6.4C49.8,39.9,51.2,41.2,51.2,42.7z M42.7,42.7c0-1.5,1.4-2.7,3.2-3.1v6.2C44,45.4,42.7,44.2,42.7,42.7z
		 M51.2,51.2c0,1.5-1.4,2.7-3.2,3.1v-6.2C49.8,48.5,51.2,49.7,51.2,51.2z"/>
	<path class="st0" d="M40.5,31.1v-8.7l14.4,6.4c3.2,1.4,7,0,8.5-3.2c1.4-3.2,0-7-3.2-8.5L40.5,8.4V7.5c0-2.9,2.4-5.3,5.3-5.3
		c0.6,0,1.1-0.5,1.1-1.1S46.5,0,45.9,0H20.4c-4.1,0-7.5,3.3-7.5,7.5v7.5H4.4c-1.8,0-3.2,1.4-3.2,3.2v32c0,1.8,1.4,3.2,3.2,3.2h8.5
		v2.1H2.3c-0.6,0-1.2,0.3-1.6,0.8c-0.4,0.5-0.6,1.1-0.5,1.7c0.7,3.5,3.8,6,7.3,6h25.5c2,0,4-0.8,5.4-2.3c6.9,4,15.7,2.6,21.1-3.2
		c5.4-5.9,6-14.7,1.5-21.3C56.4,30.7,47.9,28.1,40.5,31.1z M32.1,14.6l2.2-4.9l2.3,0l-3,6.7L32.1,14.6z M27.7,9.7h4.2l-1.4,3.2
		L27.7,9.7z M36.6,14.8c6.4,2.8,6,2.7,6.3,2.7c0.5,0,0.9-0.4,1-0.8s-0.1-1-0.6-1.2l-5.8-2.6l1.3-2.9l14.6,6.5l-1.3,2.9l-4.9-2.2
		c-0.3-0.2-0.8-0.1-1.1,0.1s-0.5,0.6-0.4,1s0.3,0.7,0.6,0.9l4.9,2.2l-1.3,2.9l-14.6-6.5L36.6,14.8z M57.3,18.2L53.8,26l-1.9-0.9
		l3.5-7.8L57.3,18.2z M61.5,21.5c0.6,1.6,0.2,3.4-1.1,4.6c-1.3,1.2-3.1,1.5-4.7,0.8l3.5-7.8C60.3,19.6,61.1,20.4,61.5,21.5
		L61.5,21.5z M3.3,50.1v-32c0-0.6,0.5-1.1,1.1-1.1h19.2c0.6,0,1.1,0.5,1.1,1.1v32c0,0.6-0.5,1.1-1.1,1.1H4.4
		C3.8,51.2,3.3,50.7,3.3,50.1z M2.3,57.6h23.4c0.2,1.6,1,3.1,2.2,4.3H7.6C5,61.9,2.8,60.1,2.3,57.6L2.3,57.6z M27.8,57.3
		c-0.1-1.1-1-1.8-2.1-1.8H15v-2.1h8.5c1.8,0,3.2-1.4,3.2-3.2v-32c0-1.8-1.4-3.2-3.2-3.2H15V7.5c0-2.9,2.4-5.3,5.3-5.3h20.3
		c-1.4,1.4-2.2,3.3-2.2,5.4c0,0-0.1,0-0.1,0l0,0H25.4c-0.4,0-0.8,0.3-1,0.6c-0.2,0.4-0.1,0.8,0.2,1.2c9.9,11.2,8.5,9.7,8.9,10
		l4.9,2.2v10.7c-4.9,2.8-8.1,8-8.5,13.7c-0.4,5.7,2.2,11.2,6.7,14.6c-1.5,1.3-3.5,1.7-5.4,1C29.4,60.9,28.1,59.2,27.8,57.3z
		 M46.9,61.9c-6,0-11.5-3.6-13.8-9.2c-2.3-5.6-1-12,3.2-16.3c4.3-4.3,10.7-5.6,16.3-3.2c5.6,2.3,9.2,7.8,9.2,13.8
		C61.9,55.2,55.2,61.9,46.9,61.9z"/>
	<path class="st0" d="M37.3,40c-0.5-0.3-1.2-0.1-1.5,0.4c-2.1,3.7-2.3,8.1-0.6,12c0.2,0.4,0.5,0.6,0.9,0.6c0.4,0,0.8-0.1,1-0.5
		s0.2-0.7,0.1-1.1c-1.5-3.2-1.3-7,0.5-10C38,41,37.9,40.3,37.3,40z"/>
	<path class="st0" d="M56.5,40c-0.5,0.3-0.7,0.9-0.4,1.5c1.8,3.1,1.9,6.8,0.5,10c-0.2,0.3-0.1,0.8,0.1,1.1s0.6,0.5,1,0.5
		c0.4,0,0.7-0.3,0.9-0.6c1.8-3.8,1.6-8.3-0.6-12C57.7,39.9,57,39.7,56.5,40z"/>
</g>
</svg>
