<?xml version="1.0" encoding="utf-8"?>
<!-- Generator: Adobe Illustrator 25.4.1, SVG Export Plug-In . SVG Version: 6.00 Build 0)  -->
<svg version="1.1" id="圖層_1" xmlns="http://www.w3.org/2000/svg" xmlns:xlink="http://www.w3.org/1999/xlink" x="0px" y="0px"
	 viewBox="0 0 64 64" style="enable-background:new 0 0 64 64;" xml:space="preserve">
<style type="text/css">
	.st0{fill:#FFFFFF;}
</style>
<g id="surface1">
	<path class="st0" d="M59.3,8.3H39.9c-0.5,0-0.9,0.4-0.9,0.9c0,0.5,0.4,0.9,0.9,0.9h19.4c1.5,0,2.8,1.3,2.8,2.8v4.5h-3.6
		c0.2-0.3,0.2-0.7,0.1-1c-0.1-0.5-0.5-0.9-1-1l-13.4-3.6c-0.5-0.1-1,0-1.4,0.4c-0.4,0.4-0.5,0.9-0.4,1.4l1,3.9H1.9V13
		c0-1.5,1.3-2.8,2.8-2.8h30.7c0.5,0,0.9-0.4,0.9-0.9c0-0.5-0.4-0.9-0.9-0.9H4.7C2.1,8.3,0,10.4,0,13v28.6c0,0.5,0.4,0.9,0.9,0.9
		c0.5,0,0.9-0.4,0.9-0.9V19.4h42.2l2,7.6c0.1,0.4,0.5,0.8,0.9,1h-2.1l-11.7-5.8c-0.8-0.4-1.7-0.4-2.4,0L19.1,28h-2.7
		c-2.3,0-4.1,1.9-4.1,4.1c0,0.3,0.1,0.7,0.4,0.9c0.1,0.1,0.2,0.2,0.3,0.2c-0.4,0.6-0.7,1.4-0.7,2.2c0,2.1,1.8,3.9,3.9,3.9
		c0.1,0,0.2,0,0.2,0c0,0,0,14.4,0,14.5H4.7c-1.5,0-2.8-1.3-2.8-2.8v-5c0-0.5-0.4-0.9-0.9-0.9C0.4,45.1,0,45.5,0,46v5
		c0,2.6,2.1,4.7,4.7,4.7h54.6c2.6,0,4.7-2.1,4.7-4.7V13C64,10.4,61.9,8.3,59.3,8.3z M44.5,13.9l11.9,3.2l-8.7,8.7L44.5,13.9z
		 M54,22.2l2.9,2.9l-1.2,1.2l-2.9-2.9L54,22.2z M31.6,23.9c0.2-0.1,0.5-0.1,0.8,0l8.3,4.1h-2c-0.2,0-0.3,0-0.5-0.1l-5.4-2.7
		c-0.5-0.2-1.1-0.2-1.6,0l-5.4,2.7C25.6,28,25.5,28,25.3,28h-2L31.6,23.9z M14.2,35.5c0-1.1,0.9-2,2-2c0.5,0,0.9-0.4,0.9-0.9
		c0-0.5-0.4-0.9-0.9-0.9h-1.9c0.3-1,1.1-1.7,2.2-1.7h8.9c0.4,0,0.9-0.1,1.3-0.3l5.4-2.7l5.4,2.7c0.4,0.2,0.8,0.3,1.3,0.3h8.9
		c1,0,1.9,0.7,2.2,1.7H20.8c-0.5,0-0.9,0.4-0.9,0.9c0,0.5,0.4,0.9,0.9,0.9h4.9c1.1,0,2,0.9,2,2s-0.9,2-2,2c-0.8,0-1.6-0.5-1.9-1.3
		c-0.2-0.5-0.6-0.8-1.1-0.8h-3.4c-0.5,0-1,0.3-1.1,0.8c-0.3,0.8-1,1.3-1.9,1.3C15.1,37.5,14.2,36.6,14.2,35.5z M49.8,35.5
		c0,1.1-0.9,2-2,2c-0.8,0-1.6-0.5-1.9-1.3c-0.2-0.5-0.6-0.8-1.1-0.8h-3.4c-0.5,0-1,0.3-1.1,0.8c-0.3,0.8-1.1,1.3-1.9,1.3
		c-1.1,0-2-0.9-2-2s0.9-2,2-2h9.5C48.9,33.4,49.8,34.3,49.8,35.5z M45.4,53.8h-1.2v-2.2c0-0.7-0.6-1.3-1.3-1.3h-1.1v-2.2
		c0-0.7-0.6-1.3-1.3-1.3h0v-8.1c0.6-0.4,1-0.9,1.3-1.5h2.6c0.3,0.6,0.8,1.1,1.3,1.5v14.8C45.7,53.7,45.6,53.8,45.4,53.8z M25.5,46.8
		v-7.4c0.1,0,0.2,0,0.2,0c2.1,0,3.9-1.8,3.9-3.9c0-0.7-0.2-1.4-0.6-2H35c-0.4,0.6-0.6,1.3-0.6,2c0,2.1,1.8,3.9,3.9,3.9
		c0.1,0,0.2,0,0.2,0v7.4H25.5z M18.3,53.5V38.7c0.6-0.4,1-0.9,1.3-1.5h2.6c0.3,0.6,0.8,1.1,1.3,1.5v8.1c-0.7,0.1-1.2,0.6-1.2,1.3
		v2.2h-1.1c-0.7,0-1.3,0.6-1.3,1.3v2.2h-1.4C18.4,53.8,18.3,53.7,18.3,53.5z M21.9,53.8v-1.6H23c0.7,0,1.3-0.6,1.3-1.3v-2.2h15.6
		v2.2c0,0.7,0.6,1.3,1.3,1.3h1.1v1.6H21.9z M59.3,53.8H47.5c0-0.1,0-14.5,0-14.5c0.1,0,0.2,0,0.2,0c2.1,0,3.9-1.8,3.9-3.9
		c0-0.8-0.2-1.6-0.7-2.2c0.1-0.1,0.2-0.1,0.3-0.2c0.2-0.2,0.4-0.6,0.4-0.9c0-2.1-1.7-3.9-3.8-4.1c0.2-0.1,0.4-0.2,0.6-0.3l3-3
		l3.3,3.3c0.2,0.2,0.6,0.4,0.9,0.4c0.3,0,0.7-0.1,0.9-0.4l2-2c0.5-0.5,0.5-1.3,0-1.8l-3.3-3.3l1.4-1.4h5.3v21.8
		c-0.9-0.7-2-1.2-3.2-1.2H54c-2.8,0-5.1,2.3-5.1,5.1s2.3,5.1,5.1,5.1h4.9c1.2,0,2.4-0.4,3.2-1.2v2C62.1,52.5,60.9,53.8,59.3,53.8z
		 M62.1,45.1c0,1.8-1.4,3.2-3.2,3.2H54c-1.8,0-3.2-1.4-3.2-3.2s1.4-3.2,3.2-3.2h4.9C60.7,41.9,62.1,43.3,62.1,45.1z"/>
	<path class="st0" d="M8.2,14.1c0,0.7-0.5,1.2-1.2,1.2c-0.7,0-1.2-0.5-1.2-1.2c0-0.7,0.5-1.2,1.2-1.2C7.6,12.9,8.2,13.4,8.2,14.1z"
		/>
	<path class="st0" d="M12.5,14.1c0,0.7-0.5,1.2-1.2,1.2c-0.7,0-1.2-0.5-1.2-1.2c0-0.7,0.5-1.2,1.2-1.2C12,12.9,12.5,13.4,12.5,14.1z
		"/>
	<path class="st0" d="M16.9,14.1c0,0.7-0.5,1.2-1.2,1.2c-0.7,0-1.2-0.5-1.2-1.2c0-0.7,0.5-1.2,1.2-1.2
		C16.3,12.9,16.9,13.4,16.9,14.1z"/>
	<path class="st0" d="M33,40.4c-0.5-0.2-1.1-0.4-1.4-0.6c0,0,0-0.1,0-0.2c0-0.1,0.1-0.2,0.2-0.2c0.5-0.1,0.8,0.1,0.8,0.1
		c0,0,0,0,0,0l0.2,0.1c1,0.5,1.9-0.8,1-1.5c-0.2-0.2-0.5-0.4-0.9-0.5c0-0.5-0.4-0.9-1-0.9c-0.5,0-0.9,0.5-0.9,1v0
		c-0.7,0.3-1.2,0.9-1.3,1.7c-0.1,0.8,0.1,1.5,0.7,2c0.5,0.4,1.2,0.7,1.9,0.9c0.1,0,0.4,0.1,0.3,0.5c0,0.2-0.2,0.6-0.7,0.6
		c-0.5,0-0.6,0-1-0.2c-0.4-0.3-1-0.2-1.3,0.2c-0.3,0.4-0.2,1,0.2,1.3c0.4,0.3,0.8,0.4,1.1,0.5c0,0.5,0.4,0.9,1,0.9
		c0.5,0,0.9-0.5,0.9-1V45c0.8-0.3,1.4-1,1.6-2C34.8,41.9,34.1,40.8,33,40.4z"/>
	<path class="st0" d="M57.8,43.2L56,45.1L55,44.1c-0.4-0.4-1-0.4-1.3,0c-0.4,0.4-0.4,1,0,1.3l1.6,1.6c0.2,0.2,0.4,0.3,0.7,0.3
		c0.2,0,0.5-0.1,0.7-0.3l2.5-2.5c0.4-0.4,0.4-1,0-1.3C58.7,42.9,58.1,42.9,57.8,43.2z"/>
	<path class="st0" d="M5,24.2h5.2c0.5,0,0.9-0.4,0.9-0.9s-0.4-0.9-0.9-0.9H5c-0.5,0-0.9,0.4-0.9,0.9S4.5,24.2,5,24.2z"/>
	<path class="st0" d="M5,27.9h5.2c0.5,0,0.9-0.4,0.9-0.9S10.6,26,10.1,26H5C4.5,26,4,26.4,4,26.9S4.5,27.9,5,27.9z"/>
	<path class="st0" d="M20.9,47.7c0.5,0,0.9-0.4,0.9-0.9v-6.6c0-0.5-0.4-0.9-0.9-0.9S20,39.6,20,40.1v6.6
		C20,47.2,20.4,47.7,20.9,47.7z"/>
	<path class="st0" d="M43.1,39.2c-0.5,0-0.9,0.4-0.9,0.9v6.6c0,0.5,0.4,0.9,0.9,0.9s0.9-0.4,0.9-0.9v-6.6
		C44,39.6,43.6,39.2,43.1,39.2z"/>
</g>
</svg>
