<?xml version="1.0" encoding="utf-8"?>
<!-- Generator: Adobe Illustrator 25.4.1, SVG Export Plug-In . SVG Version: 6.00 Build 0)  -->
<svg version="1.1" id="圖層_1" xmlns="http://www.w3.org/2000/svg" xmlns:xlink="http://www.w3.org/1999/xlink" x="0px" y="0px"
	 viewBox="0 0 64 64" style="enable-background:new 0 0 64 64;" xml:space="preserve">
<style type="text/css">
	.st0{fill:#FFFFFF;}
</style>
<g id="surface1">
	<path class="st0" d="M11.6,20.9c0,0.7-0.5,1.2-1.2,1.2c-0.7,0-1.2-0.5-1.2-1.2c0-0.7,0.5-1.2,1.2-1.2
		C11.1,19.7,11.6,20.3,11.6,20.9z"/>
	<path class="st0" d="M15.4,29.8c2.3,0,4.2-1.9,4.2-4.2c0-2.3-1.9-4.2-4.2-4.2c-2.3,0-4.2,1.9-4.2,4.2
		C11.2,27.9,13.1,29.8,15.4,29.8z M15.4,23.4c1.3,0,2.3,1,2.3,2.3s-1,2.3-2.3,2.3c-1.3,0-2.3-1-2.3-2.3S14.1,23.4,15.4,23.4z"/>
	<path class="st0" d="M63.1,49.4c0.5,0,0.9-0.4,0.9-0.9V21.3c0-2.8-2.3-5.2-5.2-5.2h-12C45.4,12.5,42.6,9.3,39,7
		c-0.4-0.3-1-0.1-1.3,0.3c-0.3,0.4-0.1,1,0.3,1.3c3.1,1.9,5.5,4.5,6.8,7.6h-12c-2.8,0-5.2,2.3-5.2,5.2v18c-0.3,0-0.7,0-1,0
		c-7.2,0-13.8-3.4-17.2-8.9c-0.5-0.7-1.3-1.2-2.1-1.2H5.6V17.9c0.9-0.3,1.6-1.1,1.7-2c0.2-1.1,0.4-2,0.7-2.7c1.8-3.8,5.1-6,10.3-7
		c-0.1,0.1-0.2,0.3-0.3,0.5c-0.3,0.4-0.1,1,0.3,1.3c0.4,0.3,1,0.1,1.3-0.3c0.2-0.4,0.5-0.7,0.9-1c0.8-0.7,1.5-1.4,2-2.2l1.3-1.9
		l1,2.1c0.4,0.9,1,1.7,1.6,2.4c0.8,0.9,1.2,2,1.1,3.3c-0.1,1.2-0.6,2.3-1.6,3c-0.9,0.8-2.1,1.1-3.3,1c-1.7-0.2-3.2-1.4-3.7-3.1
		c-0.2-0.5-0.7-0.8-1.2-0.6s-0.8,0.7-0.6,1.2c0.7,2.4,2.8,4.1,5.2,4.3c0.2,0,0.5,0,0.7,0c1.4,0,2.8-0.5,4-1.4
		c1.3-1.1,2.1-2.6,2.2-4.3C29.5,8.6,29,7,27.8,5.7c-0.1-0.1-0.1-0.1-0.2-0.2c2.3,0.1,4.6,0.5,6.7,1.3c0.1,0,0.2,0.1,0.3,0.1
		c0.4,0,0.7-0.2,0.9-0.6c0.2-0.5-0.1-1-0.6-1.2c-2.6-1-5.4-1.5-8.3-1.5c-0.1,0-0.1,0-0.2,0l-1.1-2.3c-0.3-0.6-0.8-0.9-1.4-0.9
		c-0.6,0-1.2,0.2-1.5,0.7l-1.5,2.2c-0.1,0.2-0.3,0.4-0.5,0.6c-0.3,0-0.6,0.1-0.8,0.1c0,0,0-0.1-0.1-0.1l-1.1-2.4
		C18.2,1,17.6,0.6,17,0.6c-0.6,0-1.2,0.2-1.5,0.7L14,3.5c-0.4,0.6-1,1.2-1.7,1.8c-0.5,0.4-0.9,0.9-1.2,1.4C11.1,6.8,11.1,6.9,11,7
		C9,8.3,7.4,10.1,6.3,12.4c-0.4,0.9-0.7,1.9-0.9,3.2c-0.1,0.3-0.3,0.6-0.7,0.6H3c-1.7,0-3,1.3-3,3v9c0,1.7,1.3,3,3,3h4.2
		c0.2,0,0.4,0.1,0.6,0.3c1.6,2.5,3.7,4.6,6.3,6.2c0.6,1.6,1.1,3.2,1.4,4.8c0.2,1.2,0.3,2.3,0.3,3.5c0,0.7,0.4,1.3,1.1,1.5
		c0.5,0.2,1.1,0,1.5-0.4c0.1-0.1,0.4-0.4,0.5-0.5c0.2-0.1,0.4-0.2,0.7-0.2c0.4,0,0.8,0.2,1,0.5c0.4,0.5,1.1,0.8,1.7,0.6
		c0.6-0.2,1.1-0.8,1.1-1.5c0-1.7,0.2-3.3,0.6-5c0.9,0.1,1.8,0.2,2.7,0.2c0.3,0,0.7,0,1,0v17.2c0,2.8,2.3,5.2,5.2,5.2h26.1
		c2.8,0,5.2-2.3,5.2-5.2V53c0-0.5-0.4-0.9-0.9-0.9s-0.9,0.4-0.9,0.9v5.4c0,1.8-1.5,3.3-3.3,3.3H32.8c-1.8,0-3.3-1.5-3.3-3.3V21.3
		c0-1.8,1.5-3.3,3.3-3.3h26.1c1.8,0,3.3,1.5,3.3,3.3v27.1C62.1,49,62.6,49.4,63.1,49.4z M15.6,4.6l1.3-1.9l0.8,1.7
		C16.9,4.5,16,4.7,15.3,5C15.4,4.8,15.5,4.7,15.6,4.6z M1.9,28.2v-9C1.9,18.5,2.4,18,3,18h0.7v11.3H3C2.4,29.3,1.9,28.8,1.9,28.2z
		 M21.6,43.8c0,0.5-0.1,1-0.1,1.4c-0.1-0.1-0.2-0.2-0.4-0.3c-0.5-0.3-1-0.4-1.6-0.4c-0.6,0-1.2,0.2-1.7,0.5
		c-0.1,0.1-0.2,0.1-0.3,0.2c0-0.7-0.1-1.3-0.2-2h4.2C21.6,43.3,21.6,43.7,21.6,43.8z M21.9,41.5h-4.8c-0.2-0.8-0.4-1.6-0.6-2.4
		c1.7,0.8,3.6,1.4,5.5,1.8C22,41,22,41.2,21.9,41.5z"/>
	<path class="st0" d="M60.1,29.9v-6.3c0-1.2-1-2.2-2.2-2.2H33.7c-1.2,0-2.2,1-2.2,2.2v6.3c0,1.2,1,2.2,2.2,2.2H58
		C59.2,32.1,60.1,31.1,60.1,29.9z M58.3,29.9c0,0.2-0.1,0.3-0.3,0.3H33.7c-0.2,0-0.3-0.1-0.3-0.3v-6.3c0-0.2,0.1-0.3,0.3-0.3H58
		c0.2,0,0.3,0.1,0.3,0.3V29.9z"/>
	<path class="st0" d="M48.7,27h-3.2c-0.5,0-0.9,0.4-0.9,0.9s0.4,0.9,0.9,0.9h3.2c0.5,0,0.9-0.4,0.9-0.9S49.2,27,48.7,27z"/>
	<path class="st0" d="M55.5,27h-3.2c-0.5,0-0.9,0.4-0.9,0.9s0.4,0.9,0.9,0.9h3.2c0.5,0,0.9-0.4,0.9-0.9S56,27,55.5,27z"/>
	<path class="st0" d="M39.5,36.3c0-1-0.8-1.8-1.8-1.8h-4.4c-1,0-1.8,0.8-1.8,1.8v3.4c0,1,0.8,1.8,1.8,1.8h4.4c1,0,1.8-0.8,1.8-1.8
		V36.3z M37.6,39.6h-4.3v-3.3h4.3V39.6z"/>
	<path class="st0" d="M49.2,36.3c0-1-0.8-1.8-1.8-1.8h-4.4c-1,0-1.8,0.8-1.8,1.8v3.4c0,1,0.8,1.8,1.8,1.8h4.4c1,0,1.8-0.8,1.8-1.8
		V36.3z M47.4,39.6h-4.3v-3.3h4.3V39.6z"/>
	<path class="st0" d="M59,36.3c0-1-0.8-1.8-1.8-1.8h-4.4c-1,0-1.8,0.8-1.8,1.8v3.4c0,1,0.8,1.8,1.8,1.8h4.4c1,0,1.8-0.8,1.8-1.8
		V36.3z M57.2,39.6h-4.3v-3.3h4.3V39.6z"/>
	<path class="st0" d="M39.5,45.2c0-1-0.8-1.8-1.8-1.8h-4.4c-1,0-1.8,0.8-1.8,1.8v3.4c0,1,0.8,1.8,1.8,1.8h4.4c1,0,1.8-0.8,1.8-1.8
		V45.2z M37.6,48.5h-4.3v-3.3h4.3V48.5z"/>
	<path class="st0" d="M49.2,45.2c0-1-0.8-1.8-1.8-1.8h-4.4c-1,0-1.8,0.8-1.8,1.8v3.4c0,1,0.8,1.8,1.8,1.8h4.4c1,0,1.8-0.8,1.8-1.8
		V45.2z M47.4,48.5h-4.3v-3.3h4.3V48.5z"/>
	<path class="st0" d="M37.7,52.3h-4.4c-1,0-1.8,0.8-1.8,1.8v3.4c0,1,0.8,1.8,1.8,1.8h4.4c1,0,1.8-0.8,1.8-1.8v-3.4
		C39.5,53.1,38.7,52.3,37.7,52.3z M37.6,57.4h-4.3v-3.3h4.3V57.4z"/>
	<path class="st0" d="M47.4,52.3h-4.4c-1,0-1.8,0.8-1.8,1.8v3.4c0,1,0.8,1.8,1.8,1.8h4.4c1,0,1.8-0.8,1.8-1.8v-3.4
		C49.2,53.1,48.4,52.3,47.4,52.3z M47.4,57.4h-4.3v-3.3h4.3V57.4z"/>
	<path class="st0" d="M57.2,43.4h-4.4c-1,0-1.8,0.8-1.8,1.8v12.3c0,1,0.8,1.8,1.8,1.8h4.4c1,0,1.8-0.8,1.8-1.8V45.2
		C59,44.2,58.2,43.4,57.2,43.4z M57.2,57.4h-4.3V45.2h4.3V57.4z"/>
	<path class="st0" d="M46.2,38c0,0.5-0.4,0.9-0.9,0.9s-0.9-0.4-0.9-0.9s0.4-0.9,0.9-0.9S46.2,37.5,46.2,38z"/>
	<path class="st0" d="M56,38c0,0.5-0.4,0.9-0.9,0.9s-0.9-0.4-0.9-0.9S54.5,37,55,37S56,37.5,56,38z"/>
	<path class="st0" d="M56,49.4c0,0.5-0.4,0.9-0.9,0.9s-0.9-0.4-0.9-0.9s0.4-0.9,0.9-0.9S56,48.9,56,49.4z"/>
	<path class="st0" d="M56,52.8c0,0.5-0.4,0.9-0.9,0.9s-0.9-0.4-0.9-0.9c0-0.5,0.4-0.9,0.9-0.9S56,52.3,56,52.8z"/>
	<path class="st0" d="M46.2,46.9c0,0.5-0.4,0.9-0.9,0.9s-0.9-0.4-0.9-0.9s0.4-0.9,0.9-0.9S46.2,46.4,46.2,46.9z"/>
	<path class="st0" d="M46.2,55.8c0,0.5-0.4,0.9-0.9,0.9s-0.9-0.4-0.9-0.9c0-0.5,0.4-0.9,0.9-0.9S46.2,55.3,46.2,55.8z"/>
	<path class="st0" d="M36.4,38c0,0.5-0.4,0.9-0.9,0.9s-0.9-0.4-0.9-0.9S35,37,35.5,37S36.4,37.5,36.4,38z"/>
	<path class="st0" d="M36.4,46.9c0,0.5-0.4,0.9-0.9,0.9s-0.9-0.4-0.9-0.9s0.4-0.9,0.9-0.9S36.4,46.4,36.4,46.9z"/>
	<path class="st0" d="M36.4,55.8c0,0.5-0.4,0.9-0.9,0.9s-0.9-0.4-0.9-0.9c0-0.5,0.4-0.9,0.9-0.9S36.4,55.3,36.4,55.8z"/>
</g>
</svg>
