<svg xmlns="http://www.w3.org/2000/svg" width="14.32" height="13.438" viewBox="0 0 14.32 13.438">
  <defs>
    <style>
      .cls-1 {
        fill: #fff;
        fill-rule: evenodd;
      }
    </style>
  </defs>
  <path id="形狀_1" data-name="形狀 1" class="cls-1" d="M1174.5,92.745l-5.6,5.6v4.477a0.905,0.905,0,0,0,.9.9h3.36V99.912a0.447,0.447,0,0,1,.44-0.448h1.8a0.447,0.447,0,0,1,.44.448v3.807h3.36a0.9,0.9,0,0,0,.9-0.9V98.344l-5.6-5.6h0Zm0.48-2.264,6.49,6.49a0.682,0.682,0,0,1,.2.477,0.673,0.673,0,0,1-.68.672,0.663,0.663,0,0,1-.47-0.2L1174.5,91.9l-6.02,6.017a0.663,0.663,0,0,1-.47.2,0.671,0.671,0,0,1-.48-1.149l6.49-6.49A0.677,0.677,0,0,1,1174.98,90.481Z" transform="translate(-1167.34 -90.281)"/>
</svg>
