<?xml version="1.0" encoding="utf-8"?>
<!-- Generator: Adobe Illustrator 25.4.1, SVG Export Plug-In . SVG Version: 6.00 Build 0)  -->
<svg version="1.1" id="Layer_1" xmlns="http://www.w3.org/2000/svg" xmlns:xlink="http://www.w3.org/1999/xlink" x="0px" y="0px"
	 viewBox="0 0 512 512" style="enable-background:new 0 0 512 512;" xml:space="preserve">
<style type="text/css">
	.st0{fill:#008470;}
</style>
<path class="st0" d="M315.3,292.7c-6.2-6.2-16.4-6.2-22.6,0L272,313.4v-97.3c0-8.8-7.2-16-16-16c-8.8,0-16,7.2-16,16v97.3
	l-20.7-20.7c-6.2-6.2-16.4-6.2-22.6,0c-6.2,6.2-6.2,16.4,0,22.6c51.6,51.6,49.1,49.8,53.2,51.5c5.9,2.4,12.8,1.2,17.4-3.5l48-48
	C321.5,309.1,321.5,299,315.3,292.7L315.3,292.7z"/>
<path class="st0" d="M336,432H176c-8.8,0-16-7.2-16-16c0-8.8,7.2-16,16-16h160c8.8,0,16,7.2,16,16C352,424.9,344.8,432,336,432z"/>
<path class="st0" d="M447.9,159.9c-0.1-4.3-1.8-8.2-4.7-11.1C290.3-4.2,298.8,3.7,295.5,2c-5.2-2.8,9.4-1.9-196.7-1.9
	C79.6,0.1,64,15.7,64,34.9v442.4c0,19.2,15.6,34.7,34.7,34.7h314.4c19.2,0,34.7-15.6,34.7-34.7C448,473,448,161.1,447.9,159.9
	L447.9,159.9z M304,141.3V54.7l89.4,89.4c-92.9,0-86.7,0-87.2-0.1C304.9,143.8,304,142.7,304,141.3L304,141.3z M416,477.3
	c0,1.5-1.2,2.7-2.7,2.7H98.8c-1.5,0-2.7-1.2-2.7-2.7V34.9c0-1.5,1.2-2.7,2.7-2.7H272v109.2c0,19.2,15.6,34.7,34.7,34.7H416V477.3z"
	/>
</svg>
