<?xml version="1.0" encoding="utf-8"?>
<!-- Generator: Adobe Illustrator 25.4.1, SVG Export Plug-In . SVG Version: 6.00 Build 0)  -->
<svg version="1.1" id="Layer_1" xmlns="http://www.w3.org/2000/svg" xmlns:xlink="http://www.w3.org/1999/xlink" x="0px" y="0px"
	 viewBox="0 0 512 512" style="enable-background:new 0 0 512 512;" xml:space="preserve">
<style type="text/css">
	.st0{fill:#008470;}
</style>
<path class="st0" d="M437.1,74.9c-100-100-262.2-100-362.2,0s-100,262.2,0,362.2s262.2,100,362.2,0S537.1,174.9,437.1,74.9z
	 M433.7,392.4c-1.7-0.6-3.4-0.9-5.2-0.9H373c13.3-34.8,20.8-74.8,22.2-119.5h84.3C476.4,315.8,460.5,357.6,433.7,392.4z M77.7,120.4
	c0.4,0,0.8,0.1,1.1,0.1H141c-13.3,34.8-20.8,74.8-22.2,119.5H32.5C35.6,196.6,51.3,155,77.7,120.4z M240,88.5h-47.1
	c12.3-18.5,28.4-34.1,47.1-46V88.5z M272,41.3c19.6,12,36.4,28.1,49.1,47.2H272V41.3z M240,120.5V240h-89.2
	c1.2-35,7-79.5,24.5-119.5H240z M240,272v119.5h-64.7c-17.6-40-23.3-84.5-24.5-119.5H240z M240,423.5v46
	c-18.8-11.8-34.8-27.5-47.1-46H240z M272,423.5h49.1c-12.7,19.1-29.5,35.3-49.1,47.2V423.5z M272,391.5V272h91.2
	c-1.2,35-7,79.5-24.5,119.5H272z M272,240V120.5h66.7c17.6,40,23.3,84.5,24.5,119.5H272z M358.3,88.5c-9-16.7-20.3-32.1-33.5-45.8
	c29.5,9.6,56.7,25.2,79.9,45.8H358.3z M155.7,88.5h-48.4c24-21.3,52.2-37.2,82.8-46.7C176.6,55.7,165,71.4,155.7,88.5L155.7,88.5z
	 M118.8,272c1.4,44.7,8.9,84.7,22.2,119.5H77.7C51.3,356.9,35.6,315.4,32.5,272H118.8z M155.7,423.5c9.2,17.1,20.8,32.8,34.4,46.7
	c-30.6-9.5-58.9-25.4-82.8-46.7H155.7z M358.3,423.5h46.4c-23.2,20.6-50.4,36.2-79.9,45.8C337.9,455.6,349.2,440.2,358.3,423.5
	L358.3,423.5z M395.2,240c-1.4-44.7-8.9-84.7-22.2-119.5h61.3c26.4,34.6,42.1,76.1,45.2,119.5H395.2z"/>
</svg>
