<?xml version="1.0" encoding="utf-8"?>
<!-- Generator: Adobe Illustrator 25.4.1, SVG Export Plug-In . SVG Version: 6.00 Build 0)  -->
<svg version="1.1" id="Layer_1" xmlns="http://www.w3.org/2000/svg" xmlns:xlink="http://www.w3.org/1999/xlink" x="0px" y="0px"
	 viewBox="0 0 512 512" style="enable-background:new 0 0 512 512;" xml:space="preserve">
<style type="text/css">
	.st0{fill:#666666;}
	.st1{fill:none;}
	.st2{fill:#FFA300;}
</style>
<path class="st0" d="M1035.7,482.6c12.4,11.6,25.4,22.5,37.6,32.7c6.6,5.5,12.8,10.7,18.3,15.5c6,5.3,15,5.3,21,0.1
	c5-4.4,10.8-9.1,16.8-14.1c39.8-32.9,94.3-78.1,94.3-127.6v-85.9c0-16.6-8.9-31.9-23.3-40.1h0c-0.5-0.3-1.1-0.6-1.7-0.8l-11.3-4.8
	c-1.7-131.4-109.6-236.5-241-234.7c-62,0.8-121.2,25.8-165.1,69.7c-92.9,93-92.8,243.6,0.1,336.5
	C848.2,495.6,947.9,516.6,1035.7,482.6 M1154.9,243.7l-30.7-13.1c-13.8-7.4-30.3-7.4-44,0.1l-1.3,0.6c-2.3-34.9-8.7-66.6-19.2-94.6
	h54.4C1137.5,167.8,1151.7,204.9,1154.9,243.7z M821.7,276.8c1.4,40.3,8.1,76.4,19.9,108h-56.2c-23.8-31.3-38-68.8-41-108H821.7z
	 M1047.3,244.8h-81.6v-108h59.5c15.9,36.5,21.1,76.8,22.3,108L1047.3,244.8z M965.7,64.5c16.5,10.4,30.8,24.1,41.8,40.2h-41.8V64.5z
	 M933.7,104.7h-40c10.7-15.5,24.3-28.8,40-39.1V104.7z M1044.9,104.7c-7.6-13.9-16.8-26.8-27.5-38.4c24.4,8.5,46.9,21.6,66.4,38.4
	H1044.9z M856.3,104.7h-40.8c20.3-17.5,43.8-30.8,69.1-39.3C873.6,77.3,864.1,90.5,856.3,104.7z M933.7,136.7v108h-79.9
	c1.2-31.9,6.5-71.9,22.2-108H933.7z M933.7,276.8v108h-57.8c-15.7-36.1-21-76.2-22.2-108H933.7z M994.2,433.1
	c-8.4,9.2-18,17.2-28.5,23.9v-40.2h20.8C988.6,422.5,991.2,427.9,994.2,433.1 M933.7,455.9c-15.8-10.3-29.4-23.6-40-39.1h40V455.9z
	 M856.3,416.8c7.8,14.2,17.3,27.4,28.3,39.3c-25.4-8.5-48.9-21.9-69.1-39.3H856.3z M981.2,303.3v81.5h-15.6v-108h24
	C984.2,284.5,981.3,293.8,981.2,303.3L981.2,303.3z M785.9,136.1v0.7h55.7c-11.9,31.6-18.6,67.8-19.9,108h-77.3
	C747.5,205.3,761.9,167.5,785.9,136.1z M1191.8,389.3c0,34.5-49.8,75.7-82.7,103c-2.3,1.9-4.6,3.8-6.8,5.6c-2.7-2.3-5.5-4.7-8.4-7.1
	c-34-28.4-80.6-67.3-80.6-101.5v-86c0-4.8,2.4-9.3,6.5-11.9l73.8-31.6c0.6-0.2,1.1-0.5,1.7-0.8c4.4-2.5,9.7-2.5,14.1,0
	c0.5,0.3,1.1,0.6,1.7,0.8l36.9,15.7c0.1,0,0.1,0,0.2,0.1l37.3,15.9c4.1,2.6,6.5,7.1,6.5,11.9V389.3z"/>
<path class="st1" d="M272,41.3v47.2h49.1C308.4,69.4,291.6,53.2,272,41.3z"/>
<path class="st1" d="M141,120.5H78.8c-0.4,0-0.8,0-1.1-0.1C51.3,155,35.6,196.6,32.5,240h86.3C120.2,195.3,127.7,155.3,141,120.5z"
	/>
<path class="st1" d="M434.3,120.5H373c12.1,31.5,19.3,67.4,21.6,107.2c9.9,0.5,19.5,3.7,27.8,9.3c1.3,0.8,2.8,1.9,4.6,3h52.5
	C476.4,196.6,460.7,155.1,434.3,120.5z"/>
<path class="st1" d="M190.2,41.8c-30.6,9.5-58.9,25.4-82.8,46.7h48.4C165,71.4,176.6,55.7,190.2,41.8z"/>
<path class="st1" d="M272,120.5V240h84.5c1.8-1.1,3.4-2.2,4.6-3c0.6-0.4,1.2-0.8,1.9-1.2c-1.5-34.4-7.5-76.9-24.3-115.3H272z"/>
<path class="st1" d="M324.8,469.3C324.8,469.2,324.8,469.2,324.8,469.3C324.8,469.2,324.8,469.3,324.8,469.3
	C324.8,469.3,324.8,469.3,324.8,469.3z"/>
<path class="st1" d="M272,470.7c11.3-6.9,21.7-15.2,30.8-24.6c-5.6-7-10.7-14.5-15.2-22.6H272V470.7z"/>
<path class="st1" d="M272,301.4c0-11.5,4.8-21.9,12.6-29.4H272V301.4z"/>
<path class="st1" d="M118.8,272H32.5c3.1,43.4,18.8,84.9,45.2,119.5H141C127.7,356.7,120.2,316.7,118.8,272z"/>
<path class="st1" d="M272,391.5h3.3c-2.1-8.8-3.3-18.1-3.3-27.8V391.5z"/>
<path class="st1" d="M404.7,88.5c-23.2-20.6-50.4-36.2-79.9-45.8c13.2,13.7,24.5,29.1,33.5,45.8H404.7z"/>
<path class="st1" d="M192.9,88.5H240v-46C221.2,54.4,205.2,70,192.9,88.5z"/>
<path class="st1" d="M150.8,240H240V120.5h-64.7C157.8,160.5,152.1,205,150.8,240z"/>
<path class="st1" d="M107.3,423.5c24,21.3,52.2,37.2,82.8,46.7c-13.6-13.9-25.2-29.6-34.4-46.7H107.3z"/>
<path class="st1" d="M175.3,391.5H240V272h-89.2C152.1,307,157.8,351.5,175.3,391.5z"/>
<path class="st1" d="M240,469.5v-46h-47.1C205.2,442,221.2,457.6,240,469.5z"/>
<path class="st0" d="M324.7,469.3C324.8,469.3,324.8,469.2,324.7,469.3c-7.5-6.9-15-14.6-21.9-23.2c-9.2,9.4-19.5,17.7-30.8,24.6
	v-47.2h15.7c-5.4-9.8-9.7-20.5-12.4-32H272v-27.8v-62.3V272h12.6c5.6-5.4,12.8-9.2,20.9-10.6c20.6-3.7,40.3-14.6,51.1-21.4H272
	V120.5h66.7c16.9,38.4,22.8,80.9,24.3,115.3c8.7-5.4,18.6-8.2,28.8-8.2c1,0,1.9,0,2.8,0.1c-2.3-39.7-9.5-75.6-21.6-107.2h61.3
	c26.4,34.6,42.1,76.1,45.2,119.5H427c10.7,6.8,30.5,17.7,51.1,21.4c15.4,2.8,27.4,13.9,31.7,28.3c10.1-76.3-14.2-156.2-72.8-214.8
	c-100-100-262.2-100-362.2,0s-100,262.2,0,362.2c75.7,75.7,187,94.1,280,55.2C345.7,486.3,335.2,478.6,324.7,469.3
	C324.8,469.3,324.8,469.3,324.7,469.3z M404.7,88.5h-46.4c-9-16.7-20.3-32.1-33.5-45.8C354.3,52.3,381.5,67.9,404.7,88.5z M272,41.3
	c19.6,12,36.4,28.1,49.1,47.2H272V41.3z M190.2,41.8c-13.6,13.9-25.2,29.6-34.4,46.7h-48.4C131.3,67.2,159.5,51.3,190.2,41.8z
	 M77.7,120.4c0.4,0,0.8,0.1,1.1,0.1H141c-13.3,34.8-20.8,74.8-22.2,119.5H32.5C35.6,196.6,51.3,155,77.7,120.4z M32.5,272h86.3
	c1.4,44.7,8.9,84.7,22.2,119.5H77.7C51.3,356.9,35.6,315.4,32.5,272z M107.3,423.5h48.4c9.2,17.1,20.8,32.8,34.4,46.7
	C159.5,460.7,131.3,444.8,107.3,423.5z M240,469.5c-18.8-11.8-34.8-27.5-47.1-46H240V469.5z M240,391.5h-64.7
	c-17.6-40-23.3-84.5-24.5-119.5H240V391.5z M240,240h-89.2c1.2-35,7-79.5,24.5-119.5H240V240z M240,88.5h-47.1
	c12.3-18.5,28.4-34.1,47.1-46V88.5z"/>
<path d="M394.6,227.7c0.2,4.1,0.4,8.2,0.6,12.3H427c-1.8-1.1-3.4-2.2-4.6-3C414.1,231.4,404.6,228.2,394.6,227.7z"/>
<path d="M321.1,423.5h-33.5c4.4,8.1,9.6,15.7,15.2,22.6C309.6,439.2,315.7,431.6,321.1,423.5z"/>
<path d="M356.5,240h6.6c0-1.4-0.1-2.8-0.2-4.2c-0.6,0.4-1.2,0.8-1.9,1.2C359.9,237.8,358.3,238.9,356.5,240z"/>
<path class="st2" d="M478.1,261.4c-24.1-4.3-47-18.5-55.7-24.4c-9.1-6.1-19.7-9.4-30.6-9.4s-21.5,3.2-30.6,9.4
	c-8.7,5.9-31.6,20.1-55.7,24.4c-19.4,3.5-33.5,20.3-33.5,40v62.3c0,93.8,107.1,142.7,111.7,144.7l8.1,3.6l8.1-3.6
	c4.6-2,111.7-50.9,111.7-144.7v-62.3C511.6,281.7,497.5,264.9,478.1,261.4z M479.5,294.9v68.4c0,60.8-63.8,101.3-87.8,114.3
	c-24-13-87.7-53.2-87.7-114.3v-68.4c0-0.4,0.3-0.7,0.7-0.8c33.4-6,63.2-23.6,78-33.6c2.7-1.8,5.9-2.8,9.1-2.8c3.2,0,6.4,1,9.1,2.8
	c14.8,10,44.5,27.6,78,33.6C479.2,294.2,479.5,294.5,479.5,294.9L479.5,294.9z"/>
<path class="st2" d="M460.9,312.5c6.2,6.2,6.2,16.4,0,22.6l-74.6,74.6c-3,3-7.1,4.7-11.3,4.7c-0.3,0-0.6,0-0.9,0
	c-4.6-0.3-8.8-2.5-11.6-6.1l-35.3-44.6c-5.5-6.9-4.4-17,2.5-22.5s17-4.4,22.5,2.5c0,0,0.1,0.1,0.1,0.1l24.1,30.5l61.8-61.8
	C444.5,306.3,454.7,306.3,460.9,312.5C460.9,312.5,460.9,312.5,460.9,312.5L460.9,312.5z"/>
</svg>
